<?xml version="1.0" encoding="UTF-8"?>
<svg width="239px" height="309px" viewBox="0 0 239 309" version="1.1" xmlns="http://www.w3.org/2000/svg" xmlns:xlink="http://www.w3.org/1999/xlink">
    <!-- Generator: Sketch 51.2 (57519) - http://www.bohemiancoding.com/sketch -->
    <title>book draft design icon</title>
    <desc>Created with Sketch.</desc>
    <defs></defs>
    <g id="Page-1" stroke="none" stroke-width="1" fill="none" fill-rule="evenodd">
        <g id="homepage-2" transform="translate(-823.000000, -12648.000000)">
            <g id="book-draft-design-icon" transform="translate(825.000000, 12650.000000)">
                <polygon id="Fill-1" fill="#FFFFFF" points="26.08 304.836 234.495 304.836 234.495 26.08 26.08 26.08"></polygon>
                <polygon id="Stroke-2" stroke="#21172E" stroke-width="4.106" stroke-linecap="round" stroke-linejoin="round" points="26.08 304.836 234.495 304.836 234.495 26.08 26.08 26.08"></polygon>
                <polygon id="Fill-4" fill="#FFFFFF" points="13.054 291.81 221.47 291.81 221.47 13.054 13.054 13.054"></polygon>
                <polygon id="Stroke-5" stroke="#21172E" stroke-width="4.106" stroke-linecap="round" stroke-linejoin="round" points="13.054 291.81 221.47 291.81 221.47 13.054 13.054 13.054"></polygon>
                <polygon id="Fill-6" fill="#FFFFFF" points="0.053 278.809 208.469 278.809 208.469 0.053 0.053 0.053"></polygon>
                <polygon id="Stroke-7" stroke="#21172E" stroke-width="4.106" stroke-linecap="round" stroke-linejoin="round" points="0.053 278.809 208.469 278.809 208.469 0.053 0.053 0.053"></polygon>
                <polygon id="Fill-9" fill="#CECAD1" points="162.261 253.809 182.261 253.809 182.261 26.079 162.261 26.079"></polygon>
                <polygon id="Fill-10" fill="#CECAD1" points="26.261 253.809 46.261 253.809 46.261 26.079 26.261 26.079"></polygon>
                <polygon id="Fill-11" fill="#CECAD1" points="53.461 253.809 73.461 253.809 73.461 26.079 53.461 26.079"></polygon>
                <polygon id="Fill-12" fill="#CECAD1" points="80.661 253.296 100.661 253.296 100.661 25.566 80.661 25.566"></polygon>
                <polygon id="Fill-13" fill="#CECAD1" points="107.861 253.296 127.861 253.296 127.861 25.566 107.861 25.566"></polygon>
                <polygon id="Fill-14" fill="#CECAD1" points="135.06 253.296 155.06 253.296 155.06 25.566 135.06 25.566"></polygon>
                <polygon id="Stroke-15" stroke="#21172E" stroke-width="0.998" stroke-linecap="round" stroke-linejoin="round" points="26.261 253.545 182.261 253.545 182.261 26.343 26.261 26.343"></polygon>
                <path d="M26.2606,52.5355 L182.2606,52.5355" id="Stroke-16" stroke="#21172E" stroke-width="0.998" stroke-linecap="round" stroke-linejoin="round"></path>
                <path d="M26.2606,38.1693 L182.2606,38.1693" id="Stroke-17" stroke="#21172E" stroke-width="0.998" stroke-linecap="round" stroke-linejoin="round"></path>
                <path d="M26.2606,239.2962 L182.2606,239.2962" id="Stroke-18" stroke="#21172E" stroke-width="0.998" stroke-linecap="round" stroke-linejoin="round"></path>
                <path d="M26.2606,210.5638 L182.2606,210.5638" id="Stroke-19" stroke="#21172E" stroke-width="0.998" stroke-linecap="round" stroke-linejoin="round"></path>
                <path d="M26.2606,181.8314 L182.2606,181.8314" id="Stroke-20" stroke="#21172E" stroke-width="0.998" stroke-linecap="round" stroke-linejoin="round"></path>
                <path d="M26.2606,167.4652 L182.2606,167.4652" id="Stroke-21" stroke="#21172E" stroke-width="0.998" stroke-linecap="round" stroke-linejoin="round"></path>
                <path d="M26.2606,153.099 L182.2606,153.099" id="Stroke-22" stroke="#21172E" stroke-width="0.998" stroke-linecap="round" stroke-linejoin="round"></path>
                <path d="M26.2606,124.3665 L182.2606,124.3665" id="Stroke-23" stroke="#21172E" stroke-width="0.998" stroke-linecap="round" stroke-linejoin="round"></path>
                <path d="M26.2606,110.0003 L182.2606,110.0003" id="Stroke-24" stroke="#21172E" stroke-width="0.998" stroke-linecap="round" stroke-linejoin="round"></path>
                <path d="M26.2606,95.6341 L182.2606,95.6341" id="Stroke-25" stroke="#21172E" stroke-width="0.998" stroke-linecap="round" stroke-linejoin="round"></path>
                <path d="M26.2606,81.2679 L182.2606,81.2679" id="Stroke-26" stroke="#21172E" stroke-width="0.998" stroke-linecap="round" stroke-linejoin="round"></path>
                <path d="M26.2606,66.9017 L182.2606,66.9017" id="Stroke-27" stroke="#21172E" stroke-width="0.998" stroke-linecap="round" stroke-linejoin="round"></path>
                <path d="M26.2606,138.7328 L182.2606,138.7328" id="Stroke-28" stroke="#21172E" stroke-width="0.998" stroke-linecap="round" stroke-linejoin="round"></path>
                <path d="M26.2606,196.1976 L182.2606,196.1976" id="Stroke-29" stroke="#21172E" stroke-width="0.998" stroke-linecap="round" stroke-linejoin="round"></path>
                <path d="M26.2606,224.93 L182.2606,224.93" id="Stroke-30" stroke="#21172E" stroke-width="0.998" stroke-linecap="round" stroke-linejoin="round"></path>
            </g>
        </g>
    </g>
</svg>