<?xml version="1.0" encoding="UTF-8"?>
<svg width="550px" height="936px" viewBox="0 0 550 936" version="1.1" xmlns="http://www.w3.org/2000/svg" xmlns:xlink="http://www.w3.org/1999/xlink">
    <!-- Generator: Sketch 51.3 (57544) - http://www.bohemiancoding.com/sketch -->
    <title>question mark elements</title>
    <desc>Created with Sketch.</desc>
    <defs>
        <path d="M210.85275,0 C208.57725,0.00975 206.28,0.66675 204.246,2.0265 C202.80675,2.98875 168.60075,26.06625 134.058,66.7665 C113.68575,90.771 97.4265,115.96875 85.7355,141.6585 C70.97925,174.081 63.498,207.35625 63.498,240.56025 L63.498,260.58975 L20.4855,217.57725 C15.79875,212.89125 8.20125,212.89125 3.51525,217.57725 C-1.1715,222.264 -1.1715,229.8615 3.51525,234.5475 L75.498,306.53025 L147.48075,234.5475 C152.1675,229.8615 152.1675,222.264 147.48075,217.57725 C142.79475,212.89125 135.1965,212.89125 130.5105,217.57725 L87.498,260.58975 L87.498,240.56025 C87.498,210.9285 94.2015,181.11525 107.421,151.94925 C118.12275,128.3385 133.0965,105.0735 151.9275,82.80225 C184.32225,44.4885 217.266,22.1925 217.596,21.97125 C221.0325,19.6695 222.8985,15.9 222.918,12.0525 L222.918,11.9355 C222.9075,9.66075 222.25125,7.3635 220.8915,5.33025 C218.589,1.88625 214.81275,0.0165 210.95925,0 L210.85275,0 Z" id="path-1"></path>
        <linearGradient x1="50.0000296%" y1="2.96789632e-05%" x2="50.0000296%" y2="100%" id="linearGradient-3">
            <stop stop-color="#CDCAD1" offset="0%"></stop>
            <stop stop-color="#00FF00" offset="100%"></stop>
        </linearGradient>
        <path d="M256.40625,0.74925 C226.01325,0.74925 196.21725,5.8875 167.847,16.02 C140.4285,25.8135 114.948,40.03725 92.1135,58.29825 C46.42125,94.8375 13.8255,146.12625 0.33,202.71525 C0.1095,203.64075 0.00225,204.567 0,205.479 L0,205.5345 C0.01125,210.9525 3.71625,215.8605 9.219,217.17225 C15.6645,218.7105 22.13775,214.7295 23.67525,208.28325 C35.937,156.86775 65.565,110.259 107.10225,77.0415 C127.85625,60.44475 151.0095,47.5185 175.9185,38.622 C201.69225,29.4165 228.77175,24.75 256.40625,24.75 C284.04075,24.75 311.121,29.4165 336.894,38.622 C361.80375,47.5185 384.95625,60.44475 405.71025,77.0415 C440.22975,104.64675 466.51275,141.50475 481.4505,182.67975 L423.87375,154.539 C417.9195,151.6275 410.73375,154.09575 407.823,160.05 C404.91225,166.005 407.3805,173.19 413.33475,176.10075 L506.32125,221.55 L511.584,210.7845 C511.58625,210.77925 511.5885,210.77325 511.59225,210.768 L548.478,135.3015 C551.388,129.34725 548.91975,122.16075 542.96625,119.25075 C537.01275,116.33925 529.8255,118.80825 526.91475,124.76175 L503.409,172.85475 C486.87075,128.21775 458.20125,88.2885 420.699,58.29825 C397.8645,40.03725 372.384,25.8135 344.96625,16.02 C316.59525,5.8875 286.79925,0.74925 256.40625,0.74925 Z" id="path-4"></path>
        <linearGradient x1="13.593826%" y1="23.3133288%" x2="85.8182211%" y2="127.125422%" id="linearGradient-6">
            <stop stop-color="#CDCAD1" offset="0%"></stop>
            <stop stop-color="#00FF00" offset="100%"></stop>
        </linearGradient>
    </defs>
    <g id="Page-1" stroke="none" stroke-width="1" fill="none" fill-rule="evenodd">
        <g id="homepage-2" transform="translate(-470.000000, -7214.000000)">
            <g id="question-mark-and-icon-pair" transform="translate(176.000000, 7214.000000)">
                <g id="question-mark-elements" transform="translate(294.000000, 0.000000)">
                    <g id="Group-3" transform="translate(176.000000, 629.000000)">
                        <mask id="mask-2" fill="white">
                            <use xlink:href="#path-1"></use>
                        </mask>
                        <g id="Clip-2"></g>
                        <path d="M210.85275,0 C208.57725,0.00975 206.28,0.66675 204.246,2.0265 C202.80675,2.98875 168.60075,26.06625 134.058,66.7665 C113.68575,90.771 97.4265,115.96875 85.7355,141.6585 C70.97925,174.081 63.498,207.35625 63.498,240.56025 L63.498,260.58975 L20.4855,217.57725 C15.79875,212.89125 8.20125,212.89125 3.51525,217.57725 C-1.1715,222.264 -1.1715,229.8615 3.51525,234.5475 L75.498,306.53025 L147.48075,234.5475 C152.1675,229.8615 152.1675,222.264 147.48075,217.57725 C142.79475,212.89125 135.1965,212.89125 130.5105,217.57725 L87.498,260.58975 L87.498,240.56025 C87.498,210.9285 94.2015,181.11525 107.421,151.94925 C118.12275,128.3385 133.0965,105.0735 151.9275,82.80225 C184.32225,44.4885 217.266,22.1925 217.596,21.97125 C221.0325,19.6695 222.8985,15.9 222.918,12.0525 L222.918,11.9355 C222.9075,9.66075 222.25125,7.3635 220.8915,5.33025 C218.589,1.88625 214.81275,0.0165 210.95925,0 L210.85275,0 Z" id="Fill-1" fill="url(#linearGradient-3)" mask="url(#mask-2)"></path>
                    </g>
                    <g id="Group-3">
                        <mask id="mask-5" fill="white">
                            <use xlink:href="#path-4"></use>
                        </mask>
                        <g id="Clip-2"></g>
                        <path d="M256.40625,0.74925 C226.01325,0.74925 196.21725,5.8875 167.847,16.02 C140.4285,25.8135 114.948,40.03725 92.1135,58.29825 C46.42125,94.8375 13.8255,146.12625 0.33,202.71525 C0.1095,203.64075 0.00225,204.567 0,205.479 L0,205.5345 C0.01125,210.9525 3.71625,215.8605 9.219,217.17225 C15.6645,218.7105 22.13775,214.7295 23.67525,208.28325 C35.937,156.86775 65.565,110.259 107.10225,77.0415 C127.85625,60.44475 151.0095,47.5185 175.9185,38.622 C201.69225,29.4165 228.77175,24.75 256.40625,24.75 C284.04075,24.75 311.121,29.4165 336.894,38.622 C361.80375,47.5185 384.95625,60.44475 405.71025,77.0415 C440.22975,104.64675 466.51275,141.50475 481.4505,182.67975 L423.87375,154.539 C417.9195,151.6275 410.73375,154.09575 407.823,160.05 C404.91225,166.005 407.3805,173.19 413.33475,176.10075 L506.32125,221.55 L511.584,210.7845 C511.58625,210.77925 511.5885,210.77325 511.59225,210.768 L548.478,135.3015 C551.388,129.34725 548.91975,122.16075 542.96625,119.25075 C537.01275,116.33925 529.8255,118.80825 526.91475,124.76175 L503.409,172.85475 C486.87075,128.21775 458.20125,88.2885 420.699,58.29825 C397.8645,40.03725 372.384,25.8135 344.96625,16.02 C316.59525,5.8875 286.79925,0.74925 256.40625,0.74925 Z" id="Fill-1" fill="url(#linearGradient-6)" mask="url(#mask-5)"></path>
                    </g>
                </g>
            </g>
        </g>
    </g>
</svg>