<?xml version="1.0" encoding="UTF-8"?>
<svg width="416px" height="416px" viewBox="0 0 416 416" version="1.1" xmlns="http://www.w3.org/2000/svg" xmlns:xlink="http://www.w3.org/1999/xlink">
    <!-- Generator: Sketch 51.2 (57519) - http://www.bohemiancoding.com/sketch -->
    <title>word icon and circle@1x</title>
    <desc>Created with Sketch.</desc>
    <defs></defs>
    <g id="Page-1" stroke="none" stroke-width="1" fill="none" fill-rule="evenodd">
        <g id="homepage-2" transform="translate(-176.000000, -7451.000000)">
            <g id="Group-22-Copy" transform="translate(176.000000, 7214.000000)">
                <g id="word-icon-and-circle" transform="translate(0.000000, 237.000000)">
                    <circle id="Oval-3-Copy" fill="#CECAD1" fill-rule="nonzero" cx="208" cy="208" r="208"></circle>
                    <g id="Word-Doc-Icon" transform="translate(63.000000, 55.000000)">
                        <polygon id="Fill-1" fill="#FFFFFF" points="54.358 305.836 262.774 305.836 262.774 27.08 54.358 27.08"></polygon>
                        <polygon id="Stroke-2" stroke="#21172E" stroke-width="4.106" stroke-linecap="round" stroke-linejoin="round" points="54.358 305.836 262.774 305.836 262.774 27.08 54.358 27.08"></polygon>
                        <polygon id="Fill-4" fill="#FFFFFF" points="41.332 292.81 249.748 292.81 249.748 14.054 41.332 14.054"></polygon>
                        <polygon id="Stroke-5" stroke="#21172E" stroke-width="4.106" stroke-linecap="round" stroke-linejoin="round" points="41.332 292.81 249.748 292.81 249.748 14.054 41.332 14.054"></polygon>
                        <polygon id="Fill-6" fill="#FFFFFF" points="28.331 279.809 236.747 279.809 236.747 1.053 28.331 1.053"></polygon>
                        <polygon id="Stroke-7" stroke="#21172E" stroke-width="4.106" stroke-linecap="round" stroke-linejoin="round" points="28.331 279.809 236.747 279.809 236.747 1.053 28.331 1.053"></polygon>
                        <polygon id="Fill-9" fill="#21172E" points="28.332 35.138 236.965 35.138 236.965 0.836 28.332 0.836"></polygon>
                        <polygon id="Fill-10" fill="#21172E" points="0 116.333 0 253.106 114.303 266.783 114.303 102.656"></polygon>
                        <polygon id="Fill-11" fill="#FFFFFF" points="21.7102 159.2103 33.1072 211.8573 44.6142 212.5083 53.6242 173.9733 62.7422 213.3773 75.3342 214.1363 89.7712 155.5203 77.2872 156.0623 69.4722 200.2423 60.2452 157.0393 48.7392 157.6903 39.2952 199.5913 32.4562 158.6683"></polygon>
                    </g>
                </g>
            </g>
        </g>
    </g>
</svg>