<?xml version="1.0" encoding="UTF-8"?>
<svg width="323px" height="309px" viewBox="0 0 323 309" version="1.1" xmlns="http://www.w3.org/2000/svg" xmlns:xlink="http://www.w3.org/1999/xlink">
    <!-- Generator: Sketch 51.2 (57519) - http://www.bohemiancoding.com/sketch -->
    <title>review composition icon</title>
    <desc>Created with Sketch.</desc>
    <defs>
        <polygon id="path-1" points="0.9995 0.9673 163.204 0.9673 163.204 103.9883 0.9995 103.9883"></polygon>
        <polygon id="path-3" points="0 0.9673 162.2045 0.9673 162.2045 103.9883 0 103.9883"></polygon>
        <path d="M0.204,36.477 C0.204,36.477 21.18,71.988 65.306,71.988 C109.433,71.988 130.408,36.477 130.408,36.477 C130.408,36.477 109.433,0.967 65.306,0.967 C21.18,0.967 0.204,36.477 0.204,36.477" id="path-5"></path>
        <path d="M0,36.477 C0,36.477 20.976,71.988 65.102,71.988 C109.229,71.988 130.204,36.477 130.204,36.477 C130.204,36.477 109.229,0.967 65.102,0.967 C20.976,0.967 0,36.477 0,36.477" id="path-7"></path>
    </defs>
    <g id="Page-1" stroke="none" stroke-width="1" fill="none" fill-rule="evenodd">
        <g id="homepage-2" transform="translate(-559.000000, -13672.000000)">
            <g id="review-composition-icon" transform="translate(559.000000, 13674.000000)">
                <polygon id="Fill-1" fill="#FFFFFF" points="69.908 304.836 278.324 304.836 278.324 26.08 69.908 26.08"></polygon>
                <polygon id="Stroke-2" stroke="#21172E" stroke-width="4.106" stroke-linecap="round" stroke-linejoin="round" points="69.908 304.836 278.324 304.836 278.324 26.08 69.908 26.08"></polygon>
                <polygon id="Fill-4" fill="#FFFFFF" points="56.881 291.81 265.297 291.81 265.297 13.054 56.881 13.054"></polygon>
                <polygon id="Stroke-5" stroke="#21172E" stroke-width="4.106" stroke-linecap="round" stroke-linejoin="round" points="56.881 291.81 265.297 291.81 265.297 13.054 56.881 13.054"></polygon>
                <polygon id="Fill-6" fill="#FFFFFF" points="43.881 278.809 252.296 278.809 252.296 0.053 43.881 0.053"></polygon>
                <polygon id="Stroke-7" stroke="#21172E" stroke-width="4.106" stroke-linecap="round" stroke-linejoin="round" points="43.881 278.809 252.296 278.809 252.296 0.053 43.881 0.053"></polygon>
                <polygon id="Fill-9" fill="#CECAD1" points="206.088 253.809 226.088 253.809 226.088 26.079 206.088 26.079"></polygon>
                <polygon id="Fill-10" fill="#CECAD1" points="70.088 253.809 90.088 253.809 90.088 26.079 70.088 26.079"></polygon>
                <polygon id="Fill-11" fill="#CECAD1" points="97.289 253.809 117.289 253.809 117.289 26.079 97.289 26.079"></polygon>
                <polygon id="Fill-12" fill="#CECAD1" points="124.489 253.296 144.489 253.296 144.489 25.566 124.489 25.566"></polygon>
                <polygon id="Fill-13" fill="#CECAD1" points="151.689 253.296 171.689 253.296 171.689 25.566 151.689 25.566"></polygon>
                <polygon id="Fill-14" fill="#CECAD1" points="178.889 253.296 198.889 253.296 198.889 25.566 178.889 25.566"></polygon>
                <polygon id="Stroke-15" stroke="#21172E" stroke-width="0.998" stroke-linecap="round" stroke-linejoin="round" points="70.088 253.545 226.088 253.545 226.088 26.343 70.088 26.343"></polygon>
                <path d="M70.0883,52.5355 L226.0883,52.5355" id="Stroke-16" stroke="#21172E" stroke-width="0.998" stroke-linecap="round" stroke-linejoin="round"></path>
                <path d="M70.0883,38.1693 L226.0883,38.1693" id="Stroke-17" stroke="#21172E" stroke-width="0.998" stroke-linecap="round" stroke-linejoin="round"></path>
                <path d="M70.0883,239.2962 L226.0883,239.2962" id="Stroke-18" stroke="#21172E" stroke-width="0.998" stroke-linecap="round" stroke-linejoin="round"></path>
                <path d="M70.0883,210.5638 L226.0883,210.5638" id="Stroke-19" stroke="#21172E" stroke-width="0.998" stroke-linecap="round" stroke-linejoin="round"></path>
                <path d="M70.0883,181.8314 L226.0883,181.8314" id="Stroke-20" stroke="#21172E" stroke-width="0.998" stroke-linecap="round" stroke-linejoin="round"></path>
                <path d="M70.0883,167.4652 L226.0883,167.4652" id="Stroke-21" stroke="#21172E" stroke-width="0.998" stroke-linecap="round" stroke-linejoin="round"></path>
                <path d="M70.0883,153.099 L226.0883,153.099" id="Stroke-22" stroke="#21172E" stroke-width="0.998" stroke-linecap="round" stroke-linejoin="round"></path>
                <path d="M70.0883,124.3665 L226.0883,124.3665" id="Stroke-23" stroke="#21172E" stroke-width="0.998" stroke-linecap="round" stroke-linejoin="round"></path>
                <path d="M70.0883,110.0003 L226.0883,110.0003" id="Stroke-24" stroke="#21172E" stroke-width="0.998" stroke-linecap="round" stroke-linejoin="round"></path>
                <path d="M70.0883,95.6341 L226.0883,95.6341" id="Stroke-25" stroke="#21172E" stroke-width="0.998" stroke-linecap="round" stroke-linejoin="round"></path>
                <path d="M70.0883,81.2679 L226.0883,81.2679" id="Stroke-26" stroke="#21172E" stroke-width="0.998" stroke-linecap="round" stroke-linejoin="round"></path>
                <path d="M70.0883,66.9017 L226.0883,66.9017" id="Stroke-27" stroke="#21172E" stroke-width="0.998" stroke-linecap="round" stroke-linejoin="round"></path>
                <path d="M70.0883,138.7328 L226.0883,138.7328" id="Stroke-28" stroke="#21172E" stroke-width="0.998" stroke-linecap="round" stroke-linejoin="round"></path>
                <path d="M70.0883,196.1976 L226.0883,196.1976" id="Stroke-29" stroke="#21172E" stroke-width="0.998" stroke-linecap="round" stroke-linejoin="round"></path>
                <path d="M70.0883,224.93 L226.0883,224.93" id="Stroke-30" stroke="#21172E" stroke-width="0.998" stroke-linecap="round" stroke-linejoin="round"></path>
                <g id="Group-43" transform="translate(0.000000, 71.889000)">
                    <path d="M241.102,95.9878 C192.963,95.9878 170.064,58.1568 169.113,56.5468 C167.629,54.0358 167.629,50.9188 169.113,48.4088 C170.064,46.7988 192.963,8.9668 241.102,8.9668 C289.242,8.9668 312.141,46.7988 313.092,48.4088 C314.576,50.9188 314.576,54.0358 313.092,56.5468 C312.141,58.1568 289.242,95.9878 241.102,95.9878" id="Fill-31" fill="#FFFFFF"></path>
                    <g id="Group-35" transform="translate(159.000000, 0.000000)">
                        <mask id="mask-2" fill="white">
                            <use xlink:href="#path-1"></use>
                        </mask>
                        <g id="Clip-34"></g>
                        <path d="M82.102,0.9673 C29.45,0.9673 4.27,42.5693 3.224,44.3403 C0.258,49.3603 0.258,55.5953 3.224,60.6153 C4.27,62.3863 29.45,103.9883 82.102,103.9883 C134.754,103.9883 159.934,62.3853 160.98,60.6153 C163.946,55.5953 163.946,49.3603 160.98,44.3403 C159.934,42.5693 134.754,0.9673 82.102,0.9673 M82.102,16.9673 C126.229,16.9673 147.204,52.4773 147.204,52.4773 C147.204,52.4773 126.229,87.9883 82.102,87.9883 C37.976,87.9883 17,52.4773 17,52.4773 C17,52.4773 37.976,16.9673 82.102,16.9673" id="Fill-33" fill="#FFFFFF" mask="url(#mask-2)"></path>
                    </g>
                    <path d="M81.102,95.9878 C32.963,95.9878 10.064,58.1568 9.113,56.5468 C7.629,54.0358 7.629,50.9188 9.113,48.4088 C10.064,46.7988 32.963,8.9668 81.102,8.9668 C129.242,8.9668 152.141,46.7988 153.092,48.4088 C154.576,50.9188 154.576,54.0358 153.092,56.5468 C152.141,58.1568 129.242,95.9878 81.102,95.9878" id="Fill-36" fill="#FFFFFF"></path>
                    <g id="Group-40">
                        <mask id="mask-4" fill="white">
                            <use xlink:href="#path-3"></use>
                        </mask>
                        <g id="Clip-39"></g>
                        <path d="M81.102,0.9673 C28.45,0.9673 3.27,42.5693 2.224,44.3403 C-0.742,49.3603 -0.742,55.5953 2.224,60.6153 C3.27,62.3863 28.45,103.9883 81.102,103.9883 C133.754,103.9883 158.934,62.3853 159.98,60.6153 C162.946,55.5953 162.946,49.3603 159.98,44.3403 C158.934,42.5693 133.754,0.9673 81.102,0.9673 M81.102,16.9673 C125.229,16.9673 146.204,52.4773 146.204,52.4773 C146.204,52.4773 125.229,87.9883 81.102,87.9883 C36.976,87.9883 16,52.4773 16,52.4773 C16,52.4773 36.976,16.9673 81.102,16.9673" id="Fill-38" fill="#FFFFFF" mask="url(#mask-4)"></path>
                    </g>
                    <path d="M146.4086,52.4775 C146.4086,52.4775 125.4326,87.9875 81.3056,87.9875 C37.1796,87.9875 16.2046,52.4775 16.2046,52.4775 C16.2046,52.4775 37.1796,16.9675 81.3056,16.9675 C125.4326,16.9675 146.4086,52.4775 146.4086,52.4775" id="Fill-41" fill="#FFFFFF"></path>
                </g>
                <g id="Group-46" transform="translate(16.000000, 87.889000)">
                    <mask id="mask-6" fill="white">
                        <use xlink:href="#path-5"></use>
                    </mask>
                    <g id="Clip-45"></g>
                    <path d="M102.2963,36.4775 C102.2963,56.9065 85.7343,73.4675 65.3063,73.4675 C44.8773,73.4675 28.3173,56.9065 28.3173,36.4775 C28.3173,16.0485 44.8773,-0.5125 65.3063,-0.5125 C85.7343,-0.5125 102.2963,16.0485 102.2963,36.4775" id="Fill-44" fill="#CECAD1" mask="url(#mask-6)"></path>
                </g>
                <g id="Group-53" transform="translate(16.000000, 87.889000)">
                    <path d="M130.4086,36.4775 C130.4086,36.4775 109.4326,71.9875 65.3056,71.9875 C21.1796,71.9875 0.2046,36.4775 0.2046,36.4775 C0.2046,36.4775 21.1796,0.9675 65.3056,0.9675 C109.4326,0.9675 130.4086,36.4775 130.4086,36.4775 Z" id="Stroke-47" stroke="#231F20" stroke-width="4" stroke-linecap="round" stroke-linejoin="round"></path>
                    <path d="M81.5815,36.4775 C81.5815,45.4665 74.2955,52.7525 65.3065,52.7525 C56.3175,52.7525 49.0305,45.4665 49.0305,36.4775 C49.0305,27.4885 56.3175,20.2025 65.3065,20.2025 C74.2955,20.2025 81.5815,27.4885 81.5815,36.4775" id="Fill-49" fill="#21172E"></path>
                    <path d="M290.2045,36.4775 C290.2045,36.4775 269.2285,71.9875 225.1015,71.9875 C180.9755,71.9875 160.0005,36.4775 160.0005,36.4775 C160.0005,36.4775 180.9755,0.9675 225.1015,0.9675 C269.2285,0.9675 290.2045,36.4775 290.2045,36.4775" id="Fill-51" fill="#FFFFFF"></path>
                </g>
                <g id="Group-56" transform="translate(176.000000, 87.889000)">
                    <mask id="mask-8" fill="white">
                        <use xlink:href="#path-7"></use>
                    </mask>
                    <g id="Clip-55"></g>
                    <path d="M102.0922,36.4775 C102.0922,56.9065 85.5302,73.4675 65.1022,73.4675 C44.6732,73.4675 28.1132,56.9065 28.1132,36.4775 C28.1132,16.0485 44.6732,-0.5125 65.1022,-0.5125 C85.5302,-0.5125 102.0922,16.0485 102.0922,36.4775" id="Fill-54" fill="#CECAD1" mask="url(#mask-8)"></path>
                </g>
                <g id="Group-61" transform="translate(176.000000, 87.889000)">
                    <path d="M130.2045,36.4775 C130.2045,36.4775 109.2285,71.9875 65.1015,71.9875 C20.9755,71.9875 0.0005,36.4775 0.0005,36.4775 C0.0005,36.4775 20.9755,0.9675 65.1015,0.9675 C109.2285,0.9675 130.2045,36.4775 130.2045,36.4775 Z" id="Stroke-57" stroke="#231F20" stroke-width="4" stroke-linecap="round" stroke-linejoin="round"></path>
                    <path d="M81.3774,36.4775 C81.3774,45.4665 74.0914,52.7525 65.1024,52.7525 C56.1134,52.7525 48.8264,45.4665 48.8264,36.4775 C48.8264,27.4885 56.1134,20.2025 65.1024,20.2025 C74.0914,20.2025 81.3774,27.4885 81.3774,36.4775" id="Fill-59" fill="#21172E"></path>
                </g>
            </g>
        </g>
    </g>
</svg>