<?xml version="1.0" encoding="UTF-8"?>
<svg width="195px" height="299px" viewBox="0 0 195 299" version="1.1" xmlns="http://www.w3.org/2000/svg" xmlns:xlink="http://www.w3.org/1999/xlink">
    <!-- Generator: Sketch 51.2 (57519) - http://www.bohemiancoding.com/sketch -->
    <title>Hederis Book</title>
    <desc>Created with Sketch.</desc>
    <defs></defs>
    <g id="Page-1" stroke="none" stroke-width="1" fill="none" fill-rule="evenodd">
        <g id="homepage-2-revised---horizontal-navigation" transform="translate(-850.000000, -192.000000)">
            <g id="Hederis-Book" transform="translate(851.000000, 193.000000)">
                <polygon id="Fill-1" fill="#21172E" points="11 297 193 297 193 43 11 43"></polygon>
                <polygon id="Stroke-2" stroke="#FFFFFF" stroke-linecap="round" stroke-linejoin="round" points="11 297 193 297 193 43 11 43"></polygon>
                <polygon id="Fill-4" fill="#21172E" points="11 291 187 291 187 48 11 48"></polygon>
                <polygon id="Stroke-5" stroke="#FFFFFF" stroke-linecap="round" stroke-linejoin="round" points="11 291 187 291 187 48 11 48"></polygon>
                <polygon id="Fill-6" fill="#21172E" points="0 285.333333 11 296 11 42.6666667 0 32"></polygon>
                <polygon id="Stroke-7" stroke="#FFFFFF" stroke-linecap="round" stroke-linejoin="round" points="0 286.333333 11 297 11 43.6666667 0 33"></polygon>
                <polygon id="Fill-9" fill="#FFFFFF" points="0 38 0 281.307937 10.6883857 292 187 292 187 48.6947368 176.316957 38"></polygon>
                <polygon id="Stroke-10" stroke="#21172E" stroke-linecap="round" stroke-linejoin="round" points="0 38 176.314286 38 187 48.6947368 187 292 10.6857143 292 0 281.305263"></polygon>
                <polygon id="Fill-12" fill="#21172E" points="0 281 176 281 176 38 0 38"></polygon>
                <polygon id="Stroke-13" stroke="#21172E" fill="#FFFFFF" stroke-linecap="round" stroke-linejoin="round" points="0 281 176 281 176 38 0 38"></polygon>
                <polygon id="Fill-15" fill="#21172E" points="0 32.0510328 0 286 160 253.948967 160 0"></polygon>
                <polygon id="Stroke-16" stroke="#FFFFFF" stroke-width="0.997" stroke-linecap="round" stroke-linejoin="round" points="160 253.948967 0 286 0 32.0510328 160 0"></polygon>
                <g id="Group-20" transform="translate(176.000000, 280.000000)">
                    <path d="M0.29922,0.29948 L10.69922,10.69948" id="Fill-18" fill="#21172E"></path>
                    <path d="M0.29922,1.29948 L10.69922,11.69948" id="Stroke-19" stroke="#21172E" stroke-linecap="round" stroke-linejoin="round"></path>
                </g>
            </g>
        </g>
    </g>
</svg>