<?xml version="1.0" encoding="utf-8"?>
<!-- Generator: Adobe Illustrator 22.0.0, SVG Export Plug-In . SVG Version: 6.00 Build 0)  -->
<svg version="1.1" id="Layer_1" xmlns="http://www.w3.org/2000/svg" xmlns:xlink="http://www.w3.org/1999/xlink" x="0px" y="0px"
	 viewBox="0 0 182 256" style="enable-background:new 0 0 182 256;" xml:space="preserve">
<style type="text/css">
	.st0{fill:#21172E;stroke:#FFFFFF;stroke-miterlimit:10;}
	.st1{fill:#00FF00;}
</style>
<title>hederis book</title>
<desc>Created with Sketch.</desc>
<polygon id="Fill-15" class="st0" points="0.5,0.5 0.5,254.5 181.5,255.5 181.5,1.5 "/>
<g id="Page-1_1_">
	<g id="homepage-2-revised---horizontal-navigation_1_" transform="translate(-51.000000, -30.000000)">
		<g id="Group-8" transform="translate(51.000000, 30.000000)">
			<path id="Hederis-logo_x2C_-green" class="st1" d="M106.9,101.2v42.5h-4.6v-18.4v-4.1v-0.1c-2.3,0.9-5.2,2-6.3,2.5
				c-1.6,0.9-3.1,2-4.1,3.6c-0.6,1-0.7,1,0.1,1.9c0,0,0,0,0.2,0.1c0.2-0.2,0.5-0.4,0.7-0.6c0.8-0.7,1.6-1.2,2.6-1.5
				c0.4-0.1,0.8-0.1,1.1,0.2c1.4,1,2.7,2.1,3.7,3.5c1.1,1.5,1.1,1.5,0.7,3.2c-0.9,3.6-2,7-3.9,10.2c-1.4,2.4-3.1,4.5-5,6.5
				c-0.2,0.2-0.5,0.4-0.7,0.4c-1-0.4-2-0.9-2.8-1.8c0.7,0,1.3,0.1,1.8,0c1.3-0.2,1.7-0.9,1.1-2.1c-0.3-0.6-0.8-1.2-1.3-1.7
				c-1.6-1.7-3.3-3.2-5.3-4.4c-1.3-0.9-2.3-2-2.9-3.5c-0.6-1.4-0.7-2.9-0.9-4.4c-0.1-0.9,0.2-1.4,1-1.7c2-0.9,4.1-1.3,6.3-1
				c0.6,0.1,1,0.3,1.3,0.9c1.7,3.1,2.9,6.3,3.4,9.7c0.2,1,0.3,2,0.4,3c0.2,0,0.3,0,0.4,0c0.2,0,0.3-0.1,0.5-0.1
				c-0.1-6-2.2-11.3-5.4-16.4c0.4-0.4,0.7-0.8,1.2-1.1c1.3-0.9,2.7-1.8,4-2.7c0.4-0.2,0.7-0.5,1-0.8c0-0.1-0.1-0.1-0.1-0.2
				c-2.6,0.6-5.1,1.7-7.6,2.6c-1.7,0.6-5.1,1.8-7.9,2.9v15.3h-4.6v-42.5h4.6v20.1v2.6c2.3-0.9,5.4-2,6.5-2.6c1.6-0.9,3.1-2,4.1-3.6
				c0.6-1,0.7-1-0.1-1.9c0,0,0,0-0.2-0.1c-0.2,0.2-0.5,0.4-0.7,0.6c-0.8,0.7-1.6,1.2-2.6,1.5c-0.4,0.1-0.8,0.1-1.1-0.2
				c-1.4-1-2.7-2.1-3.7-3.5c-1.1-1.5-1.1-1.5-0.7-3.2c0.9-3.6,2-7,3.9-10.2c1.4-2.4,3.1-4.5,5-6.5c0.2-0.2,0.5-0.4,0.7-0.4
				c1,0.4,2,0.9,2.8,1.8c-0.7,0-1.3-0.1-1.8,0c-1.3,0.2-1.7,0.9-1.1,2.1c0.3,0.6,0.8,1.2,1.3,1.7c1.6,1.7,3.3,3.2,5.3,4.4
				c1.3,0.9,2.3,2,2.9,3.5c0.6,1.4,0.7,2.9,0.9,4.4c0.1,0.9-0.2,1.4-1,1.7c-2,0.9-4.1,1.3-6.3,1c-0.6-0.1-1-0.3-1.3-0.9
				c-1.7-3.1-2.9-6.3-3.4-9.7c-0.2-1-0.3-2-0.4-3c-0.2,0-0.3,0-0.4,0c-0.2,0-0.3,0.1-0.5,0.1c0.1,6,2.2,11.3,5.4,16.4
				c-0.4,0.4-0.7,0.8-1.2,1.1c-1.3,0.9-2.7,1.8-4,2.7c-0.4,0.2-0.7,0.5-1,0.8c0,0.1,0.1,0.1,0.1,0.2c2.6-0.6,5.1-1.7,7.6-2.6
				c1.6-0.6,4.9-1.8,7.7-2.8v-15.4H106.9z"/>
		</g>
	</g>
</g>
</svg>
