<?xml version="1.0" encoding="utf-8"?>
<!-- Generator: Adobe Illustrator 22.0.0, SVG Export Plug-In . SVG Version: 6.00 Build 0)  -->
<svg version="1.1" id="Layer_1" xmlns="http://www.w3.org/2000/svg" xmlns:xlink="http://www.w3.org/1999/xlink" x="0px" y="0px"
	 viewBox="0 0 194 265.5" style="enable-background:new 0 0 194 265.5;" xml:space="preserve">
<style type="text/css">
	.st0{fill:#21172E;}
	.st1{fill:none;stroke:#FFFFFF;stroke-linecap:round;stroke-linejoin:round;}
	.st2{fill:#FFFFFF;}
	.st3{fill:none;stroke:#21172E;stroke-linecap:round;stroke-linejoin:round;}
	.st4{fill:#FFFFFF;stroke:#21172E;stroke-linecap:round;stroke-linejoin:round;}
</style>
<title>hederis book</title>
<desc>Created with Sketch.</desc>
<g id="Page-1">
	<g id="homepage-2-revised---horizontal-navigation" transform="translate(-850.000000, -192.000000)">
		<polygon id="Fill-1" class="st0" points="861.5,457 1043.5,457 1043.5,203 861.5,203 		"/>
		<polygon id="Stroke-2" class="st1" points="861.5,457 1043.5,457 1043.5,203 861.5,203 		"/>
		<polygon id="Fill-4" class="st0" points="861.5,451 1037.5,451 1037.5,208 861.5,208 		"/>
		<polygon id="Stroke-5" class="st1" points="861.5,451 1037.5,451 1037.5,208 861.5,208 		"/>
		<polygon id="Fill-6" class="st0" points="850.5,445.3 861.5,456 861.5,202.7 850.5,192 		"/>
		<polygon id="Stroke-7" class="st1" points="850.5,446.3 861.5,457 861.5,203.7 850.5,193 		"/>
		<polygon id="Fill-9" class="st2" points="850.5,198 850.5,441.3 861.2,452 1037.5,452 1037.5,208.7 1026.8,198 		"/>
		<polygon id="Stroke-10" class="st3" points="850.5,198 1026.8,198 1037.5,208.7 1037.5,452 861.2,452 850.5,441.3 		"/>
		<polygon id="Fill-12" class="st0" points="850.5,441 1026.5,441 1026.5,198 850.5,198 		"/>
		<polygon id="Stroke-13" class="st4" points="850.5,441 1026.5,441 1026.5,198 850.5,198 		"/>
		<g id="Group-20" transform="translate(176.000000, 280.000000)">
			<path id="Fill-18" class="st0" d="M850.8,160.3l10.4,10.4"/>
			<path id="Stroke-19" class="st3" d="M850.8,161.3l10.4,10.4"/>
		</g>
	</g>
</g>
</svg>
