<?xml version="1.0" encoding="UTF-8"?>
<svg width="154px" height="45px" viewBox="0 0 154 45" version="1.1" xmlns="http://www.w3.org/2000/svg" xmlns:xlink="http://www.w3.org/1999/xlink">
    <!-- Generator: Sketch 51.2 (57519) - http://www.bohemiancoding.com/sketch -->
    <title>Hederis wordmark, green@1x</title>
    <desc>Created with Sketch.</desc>
    <defs>
        <polygon id="path-1" points="0 0 154 0 154 45 0 45"></polygon>
    </defs>
    <g id="Page-1" stroke="none" stroke-width="1" fill="none" fill-rule="evenodd">
        <g id="homepage-2-revised---vertical-navigation" transform="translate(-53.000000, -58.000000)">
            <g id="Hederis-wordmark,-green" transform="translate(53.000000, 58.000000)">
                <mask id="mask-2" fill="white">
                    <use xlink:href="#path-1"></use>
                </mask>
                <g id="Clip-2"></g>
                <path d="M85.6508289,28.0213014 C85.6817841,28.7476655 85.7506596,29.4039624 85.8512641,30.0135477 L99.2216064,25.0823684 C99.0884988,22.1644556 98.5104097,20.0655514 97.4881129,18.7879914 C96.4650422,17.5096528 94.9288884,16.869705 92.8819731,16.869705 C90.8342839,16.869705 88.9204762,17.5345656 87.1366805,18.8627298 C86.2459434,21.022359 85.7498857,23.4871701 85.6508289,25.4801949 L85.6508289,28.0213014 Z M102.788424,34.8567536 L99.5187767,38.3943725 C97.4710875,39.3908849 95.3583923,39.8891411 93.1799173,39.8891411 C89.7121565,39.8891411 86.9710699,38.8101051 84.9574315,36.6504759 C82.9430192,34.4916252 81.9362,31.485739 81.9362,27.6320388 C81.9362,24.8752807 82.4810123,22.3505231 83.5706367,20.0585447 C87.367297,16.0063205 90.8513093,13.9798191 94.0211259,13.9798191 C99.6998648,13.9798191 102.540008,17.8000428 102.540008,25.4397115 L99.9157776,27.6320388 L99.9150037,27.6304817 L99.9150037,27.6320388 L86.5918682,32.5390838 C86.964105,33.3549783 87.4392679,34.055651 88.0281914,34.6823639 C89.480766,36.2269581 91.4619014,36.9992552 93.9715976,36.9992552 C95.1602788,36.9992552 96.3079443,36.8085165 97.4138203,36.4262606 C98.5196963,36.0447832 99.3531661,35.6874401 99.9157776,35.3550098 C100.476067,35.023358 101.202742,34.5251018 102.094253,33.8602412 L102.788424,34.8567536 Z M33.2203903,28.0213014 C33.2513455,28.7476655 33.3202209,29.4039624 33.4208254,30.0135477 L46.7911677,25.0823684 C46.6580602,22.1644556 46.0799711,20.0655514 45.0576742,18.7879914 C44.0346035,17.5096528 42.4984497,16.869705 40.4523083,16.869705 C38.4038453,16.869705 36.4900375,17.5345656 34.7062418,18.8627298 C33.8155048,21.022359 33.319447,23.4871701 33.2203903,25.4801949 L33.2203903,28.0213014 Z M50.3579853,34.8567536 L47.088338,38.3943725 C45.0406489,39.3908849 42.9279537,39.8891411 40.7494786,39.8891411 C37.2824917,39.8891411 34.5414051,38.8101051 32.5269929,36.6504759 C30.5125806,34.4916252 29.5057614,31.485739 29.5057614,27.6320388 C29.5057614,24.8752807 30.0505736,22.3505231 31.1401981,20.0585447 C34.9376322,16.0063205 38.4216445,13.9798191 41.5906873,13.9798191 C47.2694262,13.9798191 50.1095695,17.8000428 50.1095695,25.4397115 L47.485339,27.6320388 L47.4845651,27.6304817 L47.4845651,27.6320388 L34.1614296,32.5390838 C34.5336663,33.3549783 35.0088293,34.055651 35.5977527,34.6823639 C37.0503274,36.2269581 39.0322367,36.9992552 41.5411589,36.9992552 C42.730614,36.9992552 43.8775057,36.8085165 44.9833817,36.4262606 C46.0892576,36.0447832 46.9235014,35.6874401 47.485339,35.3550098 C48.0456288,35.023358 48.773077,34.5251018 49.6645879,33.8602412 L50.3579853,34.8567536 Z M143.599039,39.8891411 C146.900416,39.8891411 150.136786,38.2620232 153.306603,35.0062304 C153.76861,34.1428459 154,33.1128569 154,31.917042 C154,30.7881804 153.777122,29.7994532 153.331367,28.9524177 C152.885611,28.1053822 152.23323,27.4078235 151.374996,26.8597417 C150.515988,26.3116599 149.674005,25.8803569 148.849048,25.5642756 C148.023317,25.2489728 147.032749,24.9414553 145.877345,24.6425016 C145.612678,24.576327 145.159183,24.468112 144.515314,24.3186351 C143.871445,24.1691582 143.42569,24.0617218 143.178048,23.9947686 C142.930406,23.9285939 142.558943,23.8203789 142.063659,23.6709021 C141.568375,23.5214252 141.221677,23.3890759 141.023563,23.2722971 C140.82545,23.1562968 140.569295,22.9904709 140.255873,22.7740409 C139.941678,22.5583894 139.7188,22.3341741 139.58724,22.101395 C139.454906,21.8693945 139.339598,21.5953536 139.240541,21.2792723 C139.141485,20.9639696 139.091956,20.6066265 139.091956,20.2080215 C139.091956,19.5104628 139.223516,18.7802061 139.488183,18.0156943 C140.974035,17.0861351 142.575195,16.6205769 144.292437,16.6205769 C145.810791,16.6205769 147.172822,16.9444435 148.378528,17.5921765 C149.583461,18.2399096 150.483485,19.0791598 151.077825,20.1083703 L153.504716,17.6669149 C151.985588,15.2091106 149.410112,13.9798191 145.778288,13.9798191 C143.136258,13.9798191 140.197832,15.408413 136.962236,18.2648224 C136.400398,19.2286367 136.120253,20.3076728 136.120253,21.5034876 C136.120253,23.3641631 136.838415,24.7421529 138.274738,25.639014 C139.711061,26.5358752 141.699935,27.2505614 144.242908,27.7815156 C146.3231,28.2135972 147.957537,28.8364174 149.146218,29.6499764 C150.3349,30.4643138 150.92924,31.6679139 150.92924,33.2623338 C150.92924,33.8937178 150.796906,34.5912765 150.533013,35.3550098 C148.914828,36.4184753 147.082278,36.9494296 145.035362,36.9494296 C143.185787,36.9494296 141.584627,36.5679522 140.231109,35.8034403 C138.876817,35.039707 137.836721,34.1093693 137.110821,33.0132057 L134.584873,35.5543122 C135.40983,36.8170803 136.598512,37.8548545 138.150917,38.6684135 C139.702548,39.4819724 141.518847,39.8891411 143.599039,39.8891411 Z M129.508988,8.42426256 C129.921466,7.90965733 130.128092,7.23701147 130.128092,6.40632498 C130.128092,5.576417 129.921466,4.90377114 129.508988,4.38838739 C129.095735,3.87378217 128.493656,3.6160903 127.701202,3.6160903 C126.908747,3.6160903 126.305894,3.87378217 125.893415,4.38838739 C125.480163,4.90377114 125.274311,5.576417 125.274311,6.40632498 C125.274311,7.23701147 125.480163,7.90965733 125.893415,8.42426256 C126.305894,8.93964631 126.908747,9.19655965 127.701202,9.19655965 C128.493656,9.19655965 129.095735,8.93964631 129.508988,8.42426256 Z M126.017236,39.1417568 L129.385167,39.1417568 L129.385167,14.7272034 L126.017236,14.7272034 L126.017236,39.1417568 Z M112.019277,21.1048827 C113.868078,19.0122067 115.750931,17.9658686 117.665513,17.9658686 C118.42469,17.9658686 119.168389,18.1324731 119.895064,18.4641248 L120.785801,14.9265059 C120.25724,14.2959004 119.498063,13.9798191 118.508269,13.9798191 C116.922587,13.9798191 114.759589,15.7571924 112.019277,19.3111604 L112.019277,14.7272034 L108.55229,14.7272034 L108.55229,39.1417568 L112.019277,39.1417568 L112.019277,21.1048827 Z M75.8643296,39.1417568 L75.8643296,3.76556715 L72.2982859,3.76556715 L72.2982859,15.6738902 C70.8449374,14.5450285 68.9798841,13.9798191 66.7015784,13.9798191 C63.7298753,13.9798191 60.3619452,15.9728439 56.5977879,19.9588934 C55.3758298,22.6494769 54.7652377,25.3571879 54.7652377,28.0804694 C54.7652377,31.5682627 55.6072202,34.408323 57.2911853,36.6006503 C58.9751504,38.7929775 61.2039277,39.8891411 63.9775172,39.8891411 C64.8690282,39.8891411 65.8425705,39.6314493 66.899692,39.116844 C67.9560395,38.6022388 68.8142736,38.0790698 69.475168,37.547337 C70.1352885,37.0163828 71.0763278,36.2355219 72.2982859,35.2055329 L72.2982859,39.1417568 L75.8643296,39.1417568 Z M65.2157269,36.6504759 C62.9699242,36.6504759 61.2859591,35.7785275 60.1638316,34.0346309 C59.0409303,32.2907342 58.4798665,29.824366 58.4798665,26.6355264 C58.4798665,24.1115474 58.9914019,21.5533132 60.0152465,18.962381 C61.7982683,17.6007403 63.7128499,16.9195306 65.7605391,16.9195306 C68.4350719,16.9195306 70.6143208,17.7338681 72.2982859,19.360986 L72.2982859,33.1626825 C71.3402212,33.9598924 70.6058081,34.5500146 70.0942728,34.931492 C69.5819635,35.3137479 68.8723147,35.6960039 67.9645522,36.0774813 C67.0560159,36.4597372 66.1397408,36.6504759 65.2157269,36.6504759 Z M24.4670221,5.85824316 L24.4670221,39.1425354 L20.9017523,39.1425354 L20.9017523,24.7421529 L20.9017523,21.5533132 L20.9017523,21.501152 C19.1659372,22.191704 16.8675106,23.0488603 16.0673176,23.4926198 C14.8066654,24.192514 13.6767991,25.0558986 12.890536,26.316331 C12.3913828,27.1158765 12.3658447,27.0995275 12.9934622,27.8328983 C13.0066182,27.8476903 13.0306085,27.8539185 13.1219265,27.9045226 C13.3030146,27.7348041 13.4755901,27.5666427 13.6535827,27.4047094 C14.2479233,26.8651914 14.9018528,26.4299957 15.6896637,26.2260221 C16.0038594,26.1450555 16.2747177,26.1699683 16.5564104,26.3754989 C17.6305572,27.1602525 18.6188033,28.0228585 19.3942321,29.1221362 C20.2129982,30.2813604 20.2331191,30.2735751 19.9034458,31.6437797 C19.2363603,34.424672 18.3355628,37.1152555 16.8884054,39.6003082 C15.8034242,41.4617622 14.4800876,43.1363702 13.0213219,44.7074342 C12.8882144,44.8506829 12.6250949,45.0383075 12.4958567,44.993153 C11.6933421,44.7128839 10.9535119,44.3119434 10.3460153,43.5544382 C10.8768976,43.5544382 11.3218792,43.6050424 11.7513832,43.5443174 C12.7698106,43.4010688 13.0754936,42.8101681 12.5825314,41.9055217 C12.3217335,41.4259501 11.980452,40.9790765 11.6151801,40.5711293 C10.4179862,39.2328443 9.04512128,38.0946403 7.55772198,37.0965709 C6.54316397,36.4145827 5.77934341,35.5309565 5.32197973,34.3834102 C4.88318919,33.2810184 4.80812274,32.1085593 4.62316517,30.9540062 C4.51250019,30.2611187 4.80115781,29.8765272 5.38079469,29.6040434 C6.9332,28.8737866 8.55448072,28.6051954 10.2554712,28.838753 C10.6958095,28.8986994 11.0007186,29.1026731 11.2235963,29.5199626 C12.4997261,31.9139279 13.4314789,34.424672 13.847053,37.116034 C13.9677784,37.8968949 14.061418,38.6808699 14.1728569,39.4990999 C14.3082861,39.4990999 14.4143078,39.5099993 14.51646,39.4967644 C14.6410549,39.4804153 14.7625542,39.4438247 14.9320342,39.4048984 C14.8515505,34.7049411 13.2767027,30.5304885 10.7871274,26.5872578 C11.0873933,26.2921967 11.3497389,25.9558738 11.6832817,25.7199806 C12.6885531,25.00763 13.7247798,24.3388768 14.7424333,23.6436537 C15.0233521,23.4513579 15.2810545,23.2240285 15.5488173,23.0130482 C15.5201837,22.9577729 15.4907762,22.9024976 15.4621426,22.8480008 C13.4554692,23.298767 11.5718428,24.1419099 9.6557134,24.8620458 C8.36642763,25.3462885 5.75457921,26.3030961 3.56681759,27.1368967 L3.56681759,39.1425354 L0,39.1425354 L0,5.85824316 L3.56681759,5.85824316 L3.56681759,21.5533132 L3.56681759,23.5673582 C5.31733644,22.8666854 7.74267954,21.9667102 8.56995834,21.5073802 C9.83061051,20.807486 10.9604768,19.9441014 11.7467399,18.683669 C12.2451193,17.8841235 12.2714312,17.9004725 11.6438137,17.1678802 C11.6306577,17.1523097 11.6066674,17.1460815 11.5153495,17.0954774 C11.3342613,17.2659744 11.1616859,17.4333573 10.9836932,17.5952906 C10.3893526,18.1348086 9.73542315,18.5707828 8.94761228,18.7739779 C8.63341658,18.8549445 8.36255823,18.8300317 8.08086554,18.6245011 C7.00671869,17.8405261 6.01847264,16.9771415 5.24304386,15.8786423 C4.42427775,14.7186396 4.40415685,14.7264249 4.73305628,13.3562203 C5.40091559,10.575328 6.30171309,7.88552305 7.74887059,5.40047029 C8.83385177,3.53823777 10.1571883,1.86440837 11.615954,0.292565786 C11.7490615,0.14931713 12.0121811,-0.0383074672 12.1414192,0.00684700029 C12.9439338,0.287116109 13.6837641,0.688056639 14.2912607,1.44556176 C13.7603783,1.44556176 13.3153967,1.39573614 12.8858928,1.45568259 C11.8674653,1.59893124 11.5617823,2.18983194 12.0547445,3.09525687 C12.3155424,3.57404993 12.656824,4.02170198 13.0220958,4.42887071 C14.2192897,5.7671557 15.5921547,6.90535969 17.0787801,7.90420765 C18.094112,8.58541729 18.8579325,9.46904351 19.3145223,10.6165898 C19.7540867,11.7189816 19.8291532,12.8914407 20.0141108,14.0459938 C20.1247758,14.7396598 19.8361181,15.1234728 19.2564813,15.3959566 C17.7040759,16.1262134 16.0827952,16.3948046 14.3818048,16.1620255 C13.9414665,16.1013006 13.6365573,15.8981054 13.4136796,15.4808159 C12.1375498,13.0868506 11.2057971,10.5761065 10.790223,7.883966 C10.6694975,7.10388365 10.5758579,6.31913014 10.4644191,5.50090005 C10.3289899,5.50090005 10.2229682,5.4900007 10.1208159,5.50401415 C9.99622105,5.52036318 9.87472173,5.55695387 9.70524179,5.59510161 C9.78572541,10.2950589 11.3597994,14.4695115 13.8493746,18.4127422 C13.5498827,18.7078033 13.287537,19.0441262 12.9539943,19.2807979 C11.947949,19.99237 10.9124962,20.6611232 9.89484264,21.3563463 C9.61392383,21.5486421 9.35622145,21.7759715 9.08845862,21.9869518 C9.11709222,22.0422271 9.1464997,22.0975024 9.17513329,22.1527777 C11.1810329,21.701233 13.0654331,20.8588687 14.9815625,20.1379542 C16.2375714,19.6661679 18.7495892,18.745951 20.9017523,17.9277209 L20.9017523,5.85824316 L24.4670221,5.85824316 Z" id="Fill-1" fill="#00FF00" mask="url(#mask-2)"></path>
            </g>
        </g>
    </g>
</svg>