<?xml version="1.0" encoding="utf-8"?>
<!-- Generator: Adobe Illustrator 28.1.0, SVG Export Plug-In . SVG Version: 6.00 Build 0)  -->
<svg version="1.1" id="Layer_1" xmlns="http://www.w3.org/2000/svg" xmlns:xlink="http://www.w3.org/1999/xlink" x="0px" y="0px"
	 viewBox="0 0 88.4 234.6" style="enable-background:new 0 0 88.4 234.6;" xml:space="preserve">
<style type="text/css">
	.st0{clip-path:url(#SVGID_00000030469537894531574490000001407530766077583766_);}
	.st1{filter:url(#Adobe_OpacityMaskFilter);}
	.st2{fill-rule:evenodd;clip-rule:evenodd;fill:#FFFFFF;}
	.st3{mask:url(#mask-2_00000025427788045136925600000009911394745706175660_);fill-rule:evenodd;clip-rule:evenodd;fill:#07C896;}
</style>
<g>
	<defs>
		<rect id="SVGID_1_" x="1.6" y="0.5" width="86.8" height="234.1"/>
	</defs>
	<clipPath id="SVGID_00000056415929815463824850000016949526787669256602_">
		<use xlink:href="#SVGID_1_"  style="overflow:visible;"/>
	</clipPath>
	<g id="Page-1" style="clip-path:url(#SVGID_00000056415929815463824850000016949526787669256602_);">
		<g id="homepage-2-revised---vertical-navigation" transform="translate(-53.000000, -6202.000000)">
			<g id="Hederis-wordmark_x2C_-purple" transform="translate(53.000000, 6202.000000)">
				<g id="Clip-2">
				</g>
				<defs>
					<filter id="Adobe_OpacityMaskFilter" filterUnits="userSpaceOnUse" x="-18.6" y="0.5" width="127.3" height="234.2">
						<feColorMatrix  type="matrix" values="1 0 0 0 0  0 1 0 0 0  0 0 1 0 0  0 0 0 1 0"/>
					</filter>
				</defs>
				
					<mask maskUnits="userSpaceOnUse" x="-18.6" y="0.5" width="127.3" height="234.2" id="mask-2_00000025427788045136925600000009911394745706175660_">
					<g class="st1">
						<polygon id="path-1_00000086672290295121160150000014119909433313981106_" class="st2" points="-18.6,0.5 782.8,0.5 
							782.8,234.7 -18.6,234.7 						"/>
					</g>
				</mask>
				<path id="Fill-1" class="st3" d="M108.8,31v173.2H90.2v-74.9v-16.6v-0.3c-9,3.6-21,8.1-25.2,10.4c-6.6,3.6-12.4,8.1-16.5,14.7
					c-2.6,4.2-2.7,4.1,0.5,7.9c0.1,0.1,0.2,0.1,0.7,0.4c0.9-0.9,1.8-1.8,2.8-2.6c3.1-2.8,6.5-5.1,10.6-6.1c1.6-0.4,3-0.3,4.5,0.8
					c5.6,4.1,10.7,8.6,14.8,14.3c4.3,6,4.4,6,2.6,13.1c-3.5,14.5-8.2,28.5-15.7,41.4c-5.6,9.7-12.5,18.4-20.1,26.6
					c-0.7,0.7-2.1,1.7-2.7,1.5c-4.2-1.5-8-3.5-11.2-7.5c2.8,0,5.1,0.3,7.3-0.1c5.3-0.7,6.9-3.8,4.3-8.5c-1.4-2.5-3.1-4.8-5-6.9
					c-6.2-7-13.4-12.9-21.1-18.1c-5.3-3.5-9.3-8.1-11.6-14.1c-2.3-5.7-2.7-11.8-3.6-17.8c-0.6-3.6,0.9-5.6,3.9-7
					c8.1-3.8,16.5-5.2,25.4-4c2.3,0.3,3.9,1.4,5,3.5c6.6,12.5,11.5,25.5,13.7,39.5c0.6,4.1,1.1,8.1,1.7,12.4c0.7,0,1.3,0.1,1.8,0
					c0.6-0.1,1.3-0.3,2.2-0.5c-0.4-24.5-8.6-46.2-21.6-66.7c1.6-1.5,2.9-3.3,4.7-4.5c5.2-3.7,10.6-7.2,15.9-10.8
					c1.5-1,2.8-2.2,4.2-3.3c-0.1-0.3-0.3-0.6-0.5-0.9c-10.4,2.3-20.2,6.7-30.2,10.5c-6.7,2.5-20.3,7.5-31.7,11.8v62.5h-18.6V31H0
					v81.7v10.5c9.1-3.6,21.7-8.3,26-10.7c6.6-3.6,12.4-8.1,16.5-14.7c2.6-4.2,2.7-4.1-0.5-7.9c-0.1-0.1-0.2-0.1-0.7-0.4
					c-0.9,0.9-1.8,1.8-2.8,2.6c-3.1,2.8-6.5,5.1-10.6,6.1c-1.6,0.4-3,0.3-4.5-0.8c-5.6-4.1-10.7-8.6-14.8-14.3
					c-4.3-6-4.4-6-2.7-13.1c3.5-14.5,8.2-28.5,15.7-41.4C27.4,18.9,34.3,10.2,41.9,2c0.7-0.7,2.1-1.7,2.7-1.5
					c4.2,1.5,8,3.5,11.2,7.5c-2.8,0-5.1-0.3-7.3,0.1c-5.3,0.7-6.9,3.8-4.3,8.5c1.4,2.5,3.1,4.8,5,6.9c6.2,7,13.4,12.9,21.1,18.1
					c5.3,3.5,9.3,8.1,11.6,14.1c2.3,5.7,2.7,11.8,3.6,17.8c0.6,3.6-0.9,5.6-3.9,7c-8.1,3.8-16.5,5.2-25.4,4c-2.3-0.3-3.9-1.4-5-3.5
					c-6.6-12.5-11.5-25.5-13.7-39.5c-0.6-4.1-1.1-8.1-1.7-12.4c-0.7,0-1.3-0.1-1.8,0c-0.6,0.1-1.3,0.3-2.2,0.5
					c0.4,24.5,8.6,46.2,21.6,66.7c-1.6,1.5-2.9,3.3-4.7,4.5c-5.2,3.7-10.6,7.2-15.9,10.8c-1.5,1-2.8,2.2-4.2,3.3
					c0.1,0.3,0.3,0.6,0.5,0.9c10.4-2.3,20.2-6.7,30.2-10.5c6.5-2.5,19.6-7.2,30.8-11.5V31H108.8z"/>
			</g>
		</g>
	</g>
</g>
</svg>
