<?xml version="1.0" encoding="UTF-8"?>
<svg width="239px" height="309px" viewBox="0 0 239 309" version="1.1" xmlns="http://www.w3.org/2000/svg" xmlns:xlink="http://www.w3.org/1999/xlink">
    <!-- Generator: Sketch 51.2 (57519) - http://www.bohemiancoding.com/sketch -->
    <title>analysis icon@1x</title>
    <desc>Created with Sketch.</desc>
    <defs></defs>
    <g id="Page-1" stroke="none" stroke-width="1" fill="none" fill-rule="evenodd">
        <g id="homepage-2" transform="translate(-601.000000, -10600.000000)">
            <g id="analysis-icon" transform="translate(603.000000, 10601.000000)">
                <polygon id="Fill-1" fill="#FFFFFF" points="26.079 305.836 234.495 305.836 234.495 27.08 26.079 27.08"></polygon>
                <polygon id="Stroke-2" stroke="#21172E" stroke-width="4.106" stroke-linecap="round" stroke-linejoin="round" points="26.079 305.836 234.495 305.836 234.495 27.08 26.079 27.08"></polygon>
                <polygon id="Fill-4" fill="#FFFFFF" points="13.053 292.81 221.469 292.81 221.469 14.054 13.053 14.054"></polygon>
                <polygon id="Stroke-5" stroke="#21172E" stroke-width="4.106" stroke-linecap="round" stroke-linejoin="round" points="13.053 292.81 221.469 292.81 221.469 14.054 13.053 14.054"></polygon>
                <polygon id="Fill-6" fill="#FFFFFF" points="0.053 279.809 208.469 279.809 208.469 1.053 0.053 1.053"></polygon>
                <polygon id="Stroke-7" stroke="#21172E" stroke-width="4.106" stroke-linecap="round" stroke-linejoin="round" points="0.053 279.809 208.469 279.809 208.469 1.053 0.053 1.053"></polygon>
                <polygon id="Fill-9" fill="#21172E" points="0.053 35.138 208.686 35.138 208.686 0.836 0.053 0.836"></polygon>
                <path d="M24.2609,254.8094 L184.2609,254.8094" id="Stroke-10" stroke="#CECAD1" stroke-width="10" stroke-linecap="round" stroke-linejoin="round"></path>
                <path d="M24.2609,229.8094 L184.2609,229.8094" id="Stroke-11" stroke="#CECAD1" stroke-width="10" stroke-linecap="round" stroke-linejoin="round"></path>
                <path d="M24.2609,204.8094 L144.2609,204.8094" id="Stroke-12" stroke="#00FF00" stroke-width="10" stroke-linecap="round" stroke-linejoin="round"></path>
                <path d="M24.2609,179.8094 L144.2609,179.8094" id="Stroke-13" stroke="#00FF00" stroke-width="10" stroke-linecap="round" stroke-linejoin="round"></path>
                <path d="M24.2609,154.8094 L144.2609,154.8094" id="Stroke-14" stroke="#00FF00" stroke-width="10" stroke-linecap="round" stroke-linejoin="round"></path>
                <path d="M24.2609,129.8094 L184.2609,129.8094" id="Stroke-15" stroke="#CECAD1" stroke-width="10" stroke-linecap="round" stroke-linejoin="round"></path>
                <path d="M24.2609,104.8094 L184.2609,104.8094" id="Stroke-16" stroke="#CECAD1" stroke-width="10" stroke-linecap="round" stroke-linejoin="round"></path>
                <path d="M24.2609,79.8094 L184.2609,79.8094" id="Stroke-17" stroke="#CECAD1" stroke-width="10" stroke-linecap="round" stroke-linejoin="round"></path>
                <path d="M24.2609,54.8094 L104.2609,54.8094" id="Stroke-18" stroke="#00FF00" stroke-width="10" stroke-linecap="round" stroke-linejoin="round"></path>
            </g>
        </g>
    </g>
</svg>