<?xml version="1.0" encoding="utf-8"?>
<!-- Generator: Adobe Illustrator 22.0.0, SVG Export Plug-In . SVG Version: 6.00 Build 0)  -->
<svg version="1.1" id="Layer_1" xmlns="http://www.w3.org/2000/svg" xmlns:xlink="http://www.w3.org/1999/xlink" x="0px" y="0px"
	 viewBox="0 0 725.5 241.5" style="enable-background:new 0 0 725.5 241.5;" xml:space="preserve">
<style type="text/css">
	.st0{fill:#07FF00;}
</style>
<path class="st0" d="M716.2,103.3L556.7,3.1C547.4-2.8,535-0.1,529,9.2c-5.9,9.3-3.2,21.7,6.1,27.6l101.2,63.4H20c-11,0-20,9-20,20
	s9,20,20,20h616.5l-102.3,64.4c-9.3,5.9-12.1,18.3-6.1,27.6c3.8,6,10.3,9.3,16.9,9.3c3.7,0,7.4-1,10.7-3.1l160.6-101.3
	c5.8-3.7,9.3-10,9.3-16.9C725.5,113.4,722,107,716.2,103.3z"/>
</svg>
