<?xml version="1.0" encoding="utf-8"?>
<!-- Generator: Adobe Illustrator 22.0.0, SVG Export Plug-In . SVG Version: 6.00 Build 0)  -->
<svg version="1.1" id="Layer_1" xmlns="http://www.w3.org/2000/svg" xmlns:xlink="http://www.w3.org/1999/xlink" x="0px" y="0px"
	 viewBox="0 0 322.2 103" style="enable-background:new 0 0 322.2 103;" xml:space="preserve">
<style type="text/css">
	.st0{fill:#FFFFFF;}
	.st1{filter:url(#Adobe_OpacityMaskFilter);}
	.st2{mask:url(#mask-2_1_);fill:#FFFFFF;}
	.st3{filter:url(#Adobe_OpacityMaskFilter_1_);}
	.st4{mask:url(#mask-4_1_);fill:#FFFFFF;}
	.st5{filter:url(#Adobe_OpacityMaskFilter_2_);}
	.st6{mask:url(#mask-6_1_);fill:#CECAD1;}
	.st7{fill:none;stroke:#231F20;stroke-width:4;stroke-linecap:round;stroke-linejoin:round;}
	.st8{fill:#21172E;}
	.st9{filter:url(#Adobe_OpacityMaskFilter_3_);}
	.st10{mask:url(#mask-8_1_);fill:#CECAD1;}
</style>
<g id="Group-31" transform="translate(0.000000, 61.889000)">
	<path id="Fill-19" class="st0" d="M241.1,33.1c-48.1,0-71-37.8-72-39.4c-1.5-2.5-1.5-5.6,0-8.1c1-1.6,23.9-39.4,72-39.4
		c48.1,0,71,37.8,72,39.4c1.5,2.5,1.5,5.6,0,8.1C312.1-4.7,289.2,33.1,241.1,33.1"/>
	<g id="Group-23" transform="translate(160.000000, 0.000000)">
		<g id="Clip-22">
		</g>
		<defs>
			<filter id="Adobe_OpacityMaskFilter" filterUnits="userSpaceOnUse" x="0" y="-61.9" width="162.2" height="103">
				<feColorMatrix  type="matrix" values="1 0 0 0 0  0 1 0 0 0  0 0 1 0 0  0 0 0 1 0"/>
			</filter>
		</defs>
		<mask maskUnits="userSpaceOnUse" x="0" y="-61.9" width="162.2" height="103" id="mask-2_1_">
			<g class="st1">
				<polygon id="path-1_1_" class="st0" points="0,-61.9 162.2,-61.9 162.2,41.1 0,41.1 				"/>
			</g>
		</mask>
		<path id="Fill-21" class="st2" d="M81.1-61.9c-52.7,0-77.8,41.6-78.9,43.4c-3,5-3,11.3,0,16.3c1,1.8,26.2,43.4,78.9,43.4
			c52.7,0,77.8-41.6,78.9-43.4c3-5,3-11.3,0-16.3C158.9-20.3,133.8-61.9,81.1-61.9 M81.1-45.9c44.1,0,65.1,35.5,65.1,35.5
			s-21,35.5-65.1,35.5C37,25.1,16-10.4,16-10.4S37-45.9,81.1-45.9"/>
	</g>
	<path id="Fill-24" class="st0" d="M81.1,33.1c-48.1,0-71-37.8-72-39.4c-1.5-2.5-1.5-5.6,0-8.1c1-1.6,23.8-39.4,72-39.4
		c48.1,0,71,37.8,72,39.4c1.5,2.5,1.5,5.6,0,8.1C152.1-4.7,129.2,33.1,81.1,33.1"/>
	<g id="Group-28">
		<g id="Clip-27">
		</g>
		<defs>
			<filter id="Adobe_OpacityMaskFilter_1_" filterUnits="userSpaceOnUse" x="0" y="-61.9" width="162.2" height="103">
				<feColorMatrix  type="matrix" values="1 0 0 0 0  0 1 0 0 0  0 0 1 0 0  0 0 0 1 0"/>
			</filter>
		</defs>
		<mask maskUnits="userSpaceOnUse" x="0" y="-61.9" width="162.2" height="103" id="mask-4_1_">
			<g class="st3">
				<polygon id="path-3_1_" class="st0" points="0,-61.9 162.2,-61.9 162.2,41.1 0,41.1 				"/>
			</g>
		</mask>
		<path id="Fill-26" class="st4" d="M81.1-61.9c-52.7,0-77.8,41.6-78.9,43.4c-3,5-3,11.3,0,16.3c1,1.8,26.2,43.4,78.9,43.4
			c52.7,0,77.8-41.6,78.9-43.4c3-5,3-11.3,0-16.3C158.9-20.3,133.8-61.9,81.1-61.9 M81.1-45.9c44.1,0,65.1,35.5,65.1,35.5
			s-21,35.5-65.1,35.5C37,25.1,16-10.4,16-10.4S37-45.9,81.1-45.9"/>
	</g>
	<path id="Fill-29" class="st0" d="M146.4-10.4c0,0-21,35.5-65.1,35.5c-44.1,0-65.1-35.5-65.1-35.5s21-35.5,65.1-35.5
		C125.4-45.9,146.4-10.4,146.4-10.4"/>
</g>
<g id="Group-34" transform="translate(16.000000, 77.889000)">
	<g id="Clip-33">
	</g>
	<defs>
		<filter id="Adobe_OpacityMaskFilter_2_" filterUnits="userSpaceOnUse" x="28.3" y="-63.4" width="74" height="74">
			<feColorMatrix  type="matrix" values="1 0 0 0 0  0 1 0 0 0  0 0 1 0 0  0 0 0 1 0"/>
		</filter>
	</defs>
	<mask maskUnits="userSpaceOnUse" x="28.3" y="-63.4" width="74" height="74" id="mask-6_1_">
		<g class="st5">
			<path id="path-5_1_" class="st0" d="M0.2-26.4c0,0,21,35.5,65.1,35.5c44.1,0,65.1-35.5,65.1-35.5s-21-35.5-65.1-35.5
				C21.2-61.9,0.2-26.4,0.2-26.4"/>
		</g>
	</mask>
	<path id="Fill-32" class="st6" d="M102.3-26.4c0,20.4-16.6,37-37,37c-20.4,0-37-16.6-37-37s16.6-37,37-37
		C85.7-63.4,102.3-46.8,102.3-26.4"/>
</g>
<g id="Group-41" transform="translate(16.000000, 77.889000)">
	<path id="Stroke-35" class="st7" d="M130.4-26.4c0,0-21,35.5-65.1,35.5C21.2,9.1,0.2-26.4,0.2-26.4s21-35.5,65.1-35.5
		C109.4-61.9,130.4-26.4,130.4-26.4z"/>
	<path id="Fill-37" class="st8" d="M81.6-26.4c0,9-7.3,16.3-16.3,16.3S49-17.4,49-26.4s7.3-16.3,16.3-16.3S81.6-35.4,81.6-26.4"/>
	<path id="Fill-39" class="st0" d="M290.2-26.4c0,0-21,35.5-65.1,35.5C181,9.1,160-26.4,160-26.4s21-35.5,65.1-35.5
		C269.2-61.9,290.2-26.4,290.2-26.4"/>
</g>
<g id="Group-44" transform="translate(176.000000, 77.889000)">
	<g id="Clip-43">
	</g>
	<defs>
		<filter id="Adobe_OpacityMaskFilter_3_" filterUnits="userSpaceOnUse" x="28.1" y="-63.4" width="74" height="74">
			<feColorMatrix  type="matrix" values="1 0 0 0 0  0 1 0 0 0  0 0 1 0 0  0 0 0 1 0"/>
		</filter>
	</defs>
	<mask maskUnits="userSpaceOnUse" x="28.1" y="-63.4" width="74" height="74" id="mask-8_1_">
		<g class="st9">
			<path id="path-7_1_" class="st0" d="M0-26.4c0,0,21,35.5,65.1,35.5c44.1,0,65.1-35.5,65.1-35.5s-21-35.5-65.1-35.5
				C21-61.9,0-26.4,0-26.4"/>
		</g>
	</mask>
	<path id="Fill-42" class="st10" d="M102.1-26.4c0,20.4-16.6,37-37,37s-37-16.6-37-37s16.6-37,37-37S102.1-46.8,102.1-26.4"/>
</g>
<g id="Group-49" transform="translate(176.000000, 77.889000)">
	<path id="Stroke-45" class="st7" d="M130.2-26.4c0,0-21,35.5-65.1,35.5C21,9.1,0-26.4,0-26.4s21-35.5,65.1-35.5
		C109.2-61.9,130.2-26.4,130.2-26.4z"/>
	<path id="Fill-47" class="st8" d="M81.4-26.4c0,9-7.3,16.3-16.3,16.3s-16.3-7.3-16.3-16.3s7.3-16.3,16.3-16.3S81.4-35.4,81.4-26.4"
		/>
</g>
</svg>
