<?xml version="1.0" encoding="UTF-8"?>
<svg width="729px" height="309px" viewBox="0 0 729 309" version="1.1" xmlns="http://www.w3.org/2000/svg" xmlns:xlink="http://www.w3.org/1999/xlink">
    <!-- Generator: Sketch 51.2 (57519) - http://www.bohemiancoding.com/sketch -->
    <title>review analysis and book draft design pair</title>
    <desc>Created with Sketch.</desc>
    <defs>
        <polygon id="path-1" points="-5e-05 0.8999 162.204 0.8999 162.204 103.9209 -5e-05 103.9209"></polygon>
        <polygon id="path-3" points="0 0.8999 162.20445 0.8999 162.20445 103.9209 0 103.9209"></polygon>
        <path d="M0.204,36.41 C0.204,36.41 21.18,71.92 65.306,71.92 C109.433,71.92 130.408,36.41 130.408,36.41 C130.408,36.41 109.433,0.9 65.306,0.9 C21.18,0.9 0.204,36.41 0.204,36.41" id="path-5"></path>
        <path d="M0,36.41 C0,36.41 20.976,71.92 65.102,71.92 C109.229,71.92 130.204,36.41 130.204,36.41 C130.204,36.41 109.229,0.9 65.102,0.9 C20.976,0.9 0,36.41 0,36.41" id="path-7"></path>
    </defs>
    <g id="Page-1" stroke="none" stroke-width="1" fill="none" fill-rule="evenodd">
        <g id="homepage-2" transform="translate(-333.000000, -12648.000000)">
            <g id="review-analysis-and-book-draft-design-pair" transform="translate(333.000000, 12649.000000)">
                <g id="Group-50-Copy-3">
                    <polygon id="Fill-1" fill="#FFFFFF" points="70.01 305.836 278.425 305.836 278.425 27.08 70.01 27.08"></polygon>
                    <polygon id="Stroke-2" stroke="#21172E" stroke-width="4.106" stroke-linecap="round" stroke-linejoin="round" points="70.01 305.836 278.425 305.836 278.425 27.08 70.01 27.08"></polygon>
                    <polygon id="Fill-4" fill="#FFFFFF" points="56.984 292.81 265.4 292.81 265.4 14.054 56.984 14.054"></polygon>
                    <polygon id="Stroke-5" stroke="#21172E" stroke-width="4.106" stroke-linecap="round" stroke-linejoin="round" points="56.984 292.81 265.4 292.81 265.4 14.054 56.984 14.054"></polygon>
                    <polygon id="Fill-6" fill="#FFFFFF" points="43.983 279.809 252.399 279.809 252.399 1.053 43.983 1.053"></polygon>
                    <polygon id="Stroke-7" stroke="#21172E" stroke-width="4.106" stroke-linecap="round" stroke-linejoin="round" points="43.983 279.809 252.399 279.809 252.399 1.053 43.983 1.053"></polygon>
                    <polygon id="Fill-9" fill="#21172E" points="43.982 35.138 252.615 35.138 252.615 0.836 43.982 0.836"></polygon>
                    <path d="M68.1906,254.8094 L228.1906,254.8094" id="Stroke-10" stroke="#CECAD1" stroke-width="10" stroke-linecap="round" stroke-linejoin="round"></path>
                    <path d="M68.1906,229.8094 L228.1906,229.8094" id="Stroke-11" stroke="#CECAD1" stroke-width="10" stroke-linecap="round" stroke-linejoin="round"></path>
                    <path d="M68.1906,204.8094 L188.1906,204.8094" id="Stroke-12" stroke="#00FF00" stroke-width="10" stroke-linecap="round" stroke-linejoin="round"></path>
                    <path d="M68.1906,179.8094 L188.1906,179.8094" id="Stroke-13" stroke="#00FF00" stroke-width="10" stroke-linecap="round" stroke-linejoin="round"></path>
                    <path d="M68.1906,154.8094 L188.1906,154.8094" id="Stroke-14" stroke="#00FF00" stroke-width="10" stroke-linecap="round" stroke-linejoin="round"></path>
                    <path d="M68.1906,129.8094 L228.1906,129.8094" id="Stroke-15" stroke="#CECAD1" stroke-width="10" stroke-linecap="round" stroke-linejoin="round"></path>
                    <path d="M68.1906,104.8094 L228.1906,104.8094" id="Stroke-16" stroke="#CECAD1" stroke-width="10" stroke-linecap="round" stroke-linejoin="round"></path>
                    <path d="M68.1906,79.8094 L228.1906,79.8094" id="Stroke-17" stroke="#CECAD1" stroke-width="10" stroke-linecap="round" stroke-linejoin="round"></path>
                    <path d="M70.4035,54.8094 L150.4035,54.8094" id="Stroke-18" stroke="#00FF00" stroke-width="10" stroke-linecap="round" stroke-linejoin="round"></path>
                    <g id="Group-31" transform="translate(0.000000, 61.889000)">
                        <path d="M241.1017,95.9204 C192.9627,95.9204 170.0637,58.0894 169.1127,56.4794 C167.6287,53.9684 167.6287,50.8514 169.1127,48.3414 C170.0637,46.7314 192.9627,8.8994 241.1017,8.8994 C289.2417,8.8994 312.1407,46.7314 313.0917,48.3414 C314.5757,50.8514 314.5757,53.9684 313.0917,56.4794 C312.1407,58.0894 289.2417,95.9204 241.1017,95.9204" id="Fill-19" fill="#FFFFFF"></path>
                        <g id="Group-23" transform="translate(160.000000, 0.000000)">
                            <mask id="mask-2" fill="white">
                                <use xlink:href="#path-1"></use>
                            </mask>
                            <g id="Clip-22"></g>
                            <path d="M81.1017,0.8999 C28.4497,0.8999 3.2697,42.5019 2.2237,44.2729 C-0.7413,49.2929 -0.7413,55.5279 2.2237,60.5479 C3.2697,62.3179 28.4497,103.9209 81.1017,103.9209 C133.7547,103.9209 158.9337,62.3179 159.9807,60.5479 C162.9457,55.5279 162.9457,49.2929 159.9807,44.2729 C158.9337,42.5019 133.7547,0.8999 81.1017,0.8999 M81.1017,16.8999 C125.2287,16.8999 146.2047,52.4099 146.2047,52.4099 C146.2047,52.4099 125.2287,87.9209 81.1017,87.9209 C36.9757,87.9209 15.9997,52.4099 15.9997,52.4099 C15.9997,52.4099 36.9757,16.8999 81.1017,16.8999" id="Fill-21" fill="#FFFFFF" mask="url(#mask-2)"></path>
                        </g>
                        <path d="M81.1017,95.9204 C32.9627,95.9204 10.0637,58.0894 9.1127,56.4794 C7.6287,53.9684 7.6287,50.8514 9.1127,48.3414 C10.0637,46.7314 32.9627,8.8994 81.1017,8.8994 C129.2417,8.8994 152.1407,46.7314 153.0917,48.3414 C154.5757,50.8514 154.5757,53.9684 153.0917,56.4794 C152.1407,58.0894 129.2417,95.9204 81.1017,95.9204" id="Fill-24" fill="#FFFFFF"></path>
                        <g id="Group-28">
                            <mask id="mask-4" fill="white">
                                <use xlink:href="#path-3"></use>
                            </mask>
                            <g id="Clip-27"></g>
                            <path d="M81.1017,0.8999 C28.4497,0.8999 3.2697,42.5019 2.2237,44.2729 C-0.7413,49.2929 -0.7413,55.5279 2.2237,60.5479 C3.2697,62.3179 28.4497,103.9209 81.1017,103.9209 C133.7547,103.9209 158.9337,62.3179 159.9807,60.5479 C162.9457,55.5279 162.9457,49.2929 159.9807,44.2729 C158.9337,42.5019 133.7547,0.8999 81.1017,0.8999 M81.1017,16.8999 C125.2287,16.8999 146.2047,52.4099 146.2047,52.4099 C146.2047,52.4099 125.2287,87.9209 81.1017,87.9209 C36.9757,87.9209 15.9997,52.4099 15.9997,52.4099 C15.9997,52.4099 36.9757,16.8999 81.1017,16.8999" id="Fill-26" fill="#FFFFFF" mask="url(#mask-4)"></path>
                        </g>
                        <path d="M146.4084,52.4102 C146.4084,52.4102 125.4324,87.9202 81.3054,87.9202 C37.1794,87.9202 16.2044,52.4102 16.2044,52.4102 C16.2044,52.4102 37.1794,16.9002 81.3054,16.9002 C125.4324,16.9002 146.4084,52.4102 146.4084,52.4102" id="Fill-29" fill="#FFFFFF"></path>
                    </g>
                    <g id="Group-34" transform="translate(16.000000, 77.889000)">
                        <mask id="mask-6" fill="white">
                            <use xlink:href="#path-5"></use>
                        </mask>
                        <g id="Clip-33"></g>
                        <path d="M102.2961,36.4102 C102.2961,56.8392 85.7341,73.4002 65.3061,73.4002 C44.8771,73.4002 28.3171,56.8392 28.3171,36.4102 C28.3171,15.9812 44.8771,-0.5798 65.3061,-0.5798 C85.7341,-0.5798 102.2961,15.9812 102.2961,36.4102" id="Fill-32" fill="#CECAD1" mask="url(#mask-6)"></path>
                    </g>
                    <g id="Group-41" transform="translate(16.000000, 77.889000)">
                        <path d="M130.4084,36.4102 C130.4084,36.4102 109.4324,71.9202 65.3054,71.9202 C21.1794,71.9202 0.2044,36.4102 0.2044,36.4102 C0.2044,36.4102 21.1794,0.9002 65.3054,0.9002 C109.4324,0.9002 130.4084,36.4102 130.4084,36.4102 Z" id="Stroke-35" stroke="#231F20" stroke-width="4" stroke-linecap="round" stroke-linejoin="round"></path>
                        <path d="M81.5812,36.4102 C81.5812,45.3992 74.2952,52.6852 65.3062,52.6852 C56.3172,52.6852 49.0302,45.3992 49.0302,36.4102 C49.0302,27.4212 56.3172,20.1352 65.3062,20.1352 C74.2952,20.1352 81.5812,27.4212 81.5812,36.4102" id="Fill-37" fill="#21172E"></path>
                        <path d="M290.2043,36.4102 C290.2043,36.4102 269.2283,71.9202 225.1013,71.9202 C180.9753,71.9202 160.0003,36.4102 160.0003,36.4102 C160.0003,36.4102 180.9753,0.9002 225.1013,0.9002 C269.2283,0.9002 290.2043,36.4102 290.2043,36.4102" id="Fill-39" fill="#FFFFFF"></path>
                    </g>
                    <g id="Group-44" transform="translate(176.000000, 77.889000)">
                        <mask id="mask-8" fill="white">
                            <use xlink:href="#path-7"></use>
                        </mask>
                        <g id="Clip-43"></g>
                        <path d="M102.092,36.4102 C102.092,56.8392 85.531,73.4002 65.102,73.4002 C44.673,73.4002 28.113,56.8392 28.113,36.4102 C28.113,15.9812 44.673,-0.5798 65.102,-0.5798 C85.531,-0.5798 102.092,15.9812 102.092,36.4102" id="Fill-42" fill="#CECAD1" mask="url(#mask-8)"></path>
                    </g>
                    <g id="Group-49" transform="translate(176.000000, 77.889000)">
                        <path d="M130.2043,36.4102 C130.2043,36.4102 109.2283,71.9202 65.1013,71.9202 C20.9753,71.9202 0.0003,36.4102 0.0003,36.4102 C0.0003,36.4102 20.9753,0.9002 65.1013,0.9002 C109.2283,0.9002 130.2043,36.4102 130.2043,36.4102 Z" id="Stroke-45" stroke="#231F20" stroke-width="4" stroke-linecap="round" stroke-linejoin="round"></path>
                        <path d="M81.3771,36.4102 C81.3771,45.3992 74.0911,52.6852 65.1021,52.6852 C56.1131,52.6852 48.8261,45.3992 48.8261,36.4102 C48.8261,27.4212 56.1131,20.1352 65.1021,20.1352 C74.0911,20.1352 81.3771,27.4212 81.3771,36.4102" id="Fill-47" fill="#21172E"></path>
                    </g>
                </g>
                <g id="book-draft-design-icon" transform="translate(492.000000, 1.000000)">
                    <polygon id="Fill-1" fill="#FFFFFF" points="26.08 304.836 234.495 304.836 234.495 26.08 26.08 26.08"></polygon>
                    <polygon id="Stroke-2" stroke="#21172E" stroke-width="4.106" stroke-linecap="round" stroke-linejoin="round" points="26.08 304.836 234.495 304.836 234.495 26.08 26.08 26.08"></polygon>
                    <polygon id="Fill-4" fill="#FFFFFF" points="13.054 291.81 221.47 291.81 221.47 13.054 13.054 13.054"></polygon>
                    <polygon id="Stroke-5" stroke="#21172E" stroke-width="4.106" stroke-linecap="round" stroke-linejoin="round" points="13.054 291.81 221.47 291.81 221.47 13.054 13.054 13.054"></polygon>
                    <polygon id="Fill-6" fill="#FFFFFF" points="0.053 278.809 208.469 278.809 208.469 0.053 0.053 0.053"></polygon>
                    <polygon id="Stroke-7" stroke="#21172E" stroke-width="4.106" stroke-linecap="round" stroke-linejoin="round" points="0.053 278.809 208.469 278.809 208.469 0.053 0.053 0.053"></polygon>
                    <polygon id="Fill-9" fill="#CECAD1" points="162.261 253.809 182.261 253.809 182.261 26.079 162.261 26.079"></polygon>
                    <polygon id="Fill-10" fill="#CECAD1" points="26.261 253.809 46.261 253.809 46.261 26.079 26.261 26.079"></polygon>
                    <polygon id="Fill-11" fill="#CECAD1" points="53.461 253.809 73.461 253.809 73.461 26.079 53.461 26.079"></polygon>
                    <polygon id="Fill-12" fill="#CECAD1" points="80.661 253.296 100.661 253.296 100.661 25.566 80.661 25.566"></polygon>
                    <polygon id="Fill-13" fill="#CECAD1" points="107.861 253.296 127.861 253.296 127.861 25.566 107.861 25.566"></polygon>
                    <polygon id="Fill-14" fill="#CECAD1" points="135.06 253.296 155.06 253.296 155.06 25.566 135.06 25.566"></polygon>
                    <polygon id="Stroke-15" stroke="#21172E" stroke-width="0.998" stroke-linecap="round" stroke-linejoin="round" points="26.261 253.545 182.261 253.545 182.261 26.343 26.261 26.343"></polygon>
                    <path d="M26.2606,52.5355 L182.2606,52.5355" id="Stroke-16" stroke="#21172E" stroke-width="0.998" stroke-linecap="round" stroke-linejoin="round"></path>
                    <path d="M26.2606,38.1693 L182.2606,38.1693" id="Stroke-17" stroke="#21172E" stroke-width="0.998" stroke-linecap="round" stroke-linejoin="round"></path>
                    <path d="M26.2606,239.2962 L182.2606,239.2962" id="Stroke-18" stroke="#21172E" stroke-width="0.998" stroke-linecap="round" stroke-linejoin="round"></path>
                    <path d="M26.2606,210.5638 L182.2606,210.5638" id="Stroke-19" stroke="#21172E" stroke-width="0.998" stroke-linecap="round" stroke-linejoin="round"></path>
                    <path d="M26.2606,181.8314 L182.2606,181.8314" id="Stroke-20" stroke="#21172E" stroke-width="0.998" stroke-linecap="round" stroke-linejoin="round"></path>
                    <path d="M26.2606,167.4652 L182.2606,167.4652" id="Stroke-21" stroke="#21172E" stroke-width="0.998" stroke-linecap="round" stroke-linejoin="round"></path>
                    <path d="M26.2606,153.099 L182.2606,153.099" id="Stroke-22" stroke="#21172E" stroke-width="0.998" stroke-linecap="round" stroke-linejoin="round"></path>
                    <path d="M26.2606,124.3665 L182.2606,124.3665" id="Stroke-23" stroke="#21172E" stroke-width="0.998" stroke-linecap="round" stroke-linejoin="round"></path>
                    <path d="M26.2606,110.0003 L182.2606,110.0003" id="Stroke-24" stroke="#21172E" stroke-width="0.998" stroke-linecap="round" stroke-linejoin="round"></path>
                    <path d="M26.2606,95.6341 L182.2606,95.6341" id="Stroke-25" stroke="#21172E" stroke-width="0.998" stroke-linecap="round" stroke-linejoin="round"></path>
                    <path d="M26.2606,81.2679 L182.2606,81.2679" id="Stroke-26" stroke="#21172E" stroke-width="0.998" stroke-linecap="round" stroke-linejoin="round"></path>
                    <path d="M26.2606,66.9017 L182.2606,66.9017" id="Stroke-27" stroke="#21172E" stroke-width="0.998" stroke-linecap="round" stroke-linejoin="round"></path>
                    <path d="M26.2606,138.7328 L182.2606,138.7328" id="Stroke-28" stroke="#21172E" stroke-width="0.998" stroke-linecap="round" stroke-linejoin="round"></path>
                    <path d="M26.2606,196.1976 L182.2606,196.1976" id="Stroke-29" stroke="#21172E" stroke-width="0.998" stroke-linecap="round" stroke-linejoin="round"></path>
                    <path d="M26.2606,224.93 L182.2606,224.93" id="Stroke-30" stroke="#21172E" stroke-width="0.998" stroke-linecap="round" stroke-linejoin="round"></path>
                </g>
            </g>
        </g>
    </g>
</svg>