<?xml version="1.0" encoding="UTF-8"?>
<svg width="731px" height="345px" viewBox="0 0 731 345" version="1.1" xmlns="http://www.w3.org/2000/svg" xmlns:xlink="http://www.w3.org/1999/xlink">
    <!-- Generator: Sketch 51.2 (57519) - http://www.bohemiancoding.com/sketch -->
    <title>page count pair</title>
    <desc>Created with Sketch.</desc>
    <defs></defs>
    <g id="Page-1" stroke="none" stroke-width="1" fill="none" fill-rule="evenodd">
        <g id="homepage-2" transform="translate(-331.000000, -14678.000000)">
            <g id="page-count-pair" transform="translate(333.000000, 14680.000000)">
                <g id="long-page-count">
                    <polygon id="Fill-1" fill="#FFFFFF" points="62.08 340.836 270.496 340.836 270.496 62.08 62.08 62.08"></polygon>
                    <polygon id="Stroke-2" stroke="#21172E" stroke-width="4.106" stroke-linecap="round" stroke-linejoin="round" points="62.08 340.836 270.496 340.836 270.496 62.08 62.08 62.08"></polygon>
                    <polygon id="Fill-4" fill="#FFFFFF" points="62.08 340.836 270.496 340.836 270.496 62.08 62.08 62.08"></polygon>
                    <polygon id="Stroke-5" stroke="#21172E" stroke-width="4.106" stroke-linecap="round" stroke-linejoin="round" points="62.08 340.836 270.496 340.836 270.496 62.08 62.08 62.08"></polygon>
                    <polygon id="Fill-7" fill="#FFFFFF" points="50.08 328.836 258.496 328.836 258.496 50.08 50.08 50.08"></polygon>
                    <polygon id="Stroke-8" stroke="#21172E" stroke-width="4.106" stroke-linecap="round" stroke-linejoin="round" points="50.08 328.836 258.496 328.836 258.496 50.08 50.08 50.08"></polygon>
                    <polygon id="Fill-9" fill="#FFFFFF" points="38.08 316.836 246.496 316.836 246.496 38.08 38.08 38.08"></polygon>
                    <polygon id="Stroke-10" stroke="#21172E" stroke-width="4.106" stroke-linecap="round" stroke-linejoin="round" points="38.08 316.836 246.496 316.836 246.496 38.08 38.08 38.08"></polygon>
                    <polygon id="Fill-11" fill="#FFFFFF" points="26.08 304.836 234.496 304.836 234.496 26.08 26.08 26.08"></polygon>
                    <polygon id="Stroke-12" stroke="#21172E" stroke-width="4.106" stroke-linecap="round" stroke-linejoin="round" points="26.08 304.836 234.496 304.836 234.496 26.08 26.08 26.08"></polygon>
                    <polygon id="Fill-13" fill="#FFFFFF" points="13.054 291.81 221.47 291.81 221.47 13.054 13.054 13.054"></polygon>
                    <polygon id="Stroke-14" stroke="#21172E" stroke-width="4.106" stroke-linecap="round" stroke-linejoin="round" points="13.054 291.81 221.47 291.81 221.47 13.054 13.054 13.054"></polygon>
                    <polygon id="Fill-15" fill="#FFFFFF" points="0.053 278.809 208.469 278.809 208.469 0.053 0.053 0.053"></polygon>
                    <polygon id="Stroke-16" stroke="#21172E" stroke-width="4.106" stroke-linecap="round" stroke-linejoin="round" points="0.053 278.809 208.469 278.809 208.469 0.053 0.053 0.053"></polygon>
                    <polygon id="Fill-18" fill="#CECAD1" points="162.261 253.809 182.261 253.809 182.261 26.079 162.261 26.079"></polygon>
                    <polygon id="Fill-19" fill="#CECAD1" points="26.261 253.809 46.261 253.809 46.261 26.079 26.261 26.079"></polygon>
                    <polygon id="Fill-20" fill="#CECAD1" points="53.461 253.809 73.461 253.809 73.461 26.079 53.461 26.079"></polygon>
                    <polygon id="Fill-21" fill="#CECAD1" points="80.661 253.295 100.661 253.295 100.661 25.566 80.661 25.566"></polygon>
                    <polygon id="Fill-22" fill="#CECAD1" points="107.861 253.295 127.861 253.295 127.861 25.566 107.861 25.566"></polygon>
                    <polygon id="Fill-23" fill="#CECAD1" points="135.061 253.295 155.061 253.295 155.061 25.566 135.061 25.566"></polygon>
                    <polygon id="Stroke-24" stroke="#21172E" stroke-width="0.998" stroke-linecap="round" stroke-linejoin="round" points="26.261 253.546 182.261 253.546 182.261 26.344 26.261 26.344"></polygon>
                    <path d="M26.2607,52.5355 L182.2607,52.5355" id="Stroke-25" stroke="#21172E" stroke-width="0.998" stroke-linecap="round" stroke-linejoin="round"></path>
                    <path d="M26.2607,38.1693 L182.2607,38.1693" id="Stroke-26" stroke="#21172E" stroke-width="0.998" stroke-linecap="round" stroke-linejoin="round"></path>
                    <path d="M26.2607,239.2958 L182.2607,239.2958" id="Stroke-27" stroke="#21172E" stroke-width="0.998" stroke-linecap="round" stroke-linejoin="round"></path>
                    <path d="M26.2607,210.5638 L182.2607,210.5638" id="Stroke-28" stroke="#21172E" stroke-width="0.998" stroke-linecap="round" stroke-linejoin="round"></path>
                    <path d="M26.2607,181.8314 L182.2607,181.8314" id="Stroke-29" stroke="#21172E" stroke-width="0.998" stroke-linecap="round" stroke-linejoin="round"></path>
                    <path d="M26.2607,167.4652 L182.2607,167.4652" id="Stroke-30" stroke="#21172E" stroke-width="0.998" stroke-linecap="round" stroke-linejoin="round"></path>
                    <path d="M26.2607,153.099 L182.2607,153.099" id="Stroke-31" stroke="#21172E" stroke-width="0.998" stroke-linecap="round" stroke-linejoin="round"></path>
                    <path d="M26.2607,124.3666 L182.2607,124.3666" id="Stroke-32" stroke="#21172E" stroke-width="0.998" stroke-linecap="round" stroke-linejoin="round"></path>
                    <path d="M26.2607,110.0003 L182.2607,110.0003" id="Stroke-33" stroke="#21172E" stroke-width="0.998" stroke-linecap="round" stroke-linejoin="round"></path>
                    <path d="M26.2607,95.6341 L182.2607,95.6341" id="Stroke-34" stroke="#21172E" stroke-width="0.998" stroke-linecap="round" stroke-linejoin="round"></path>
                    <path d="M26.2607,81.2679 L182.2607,81.2679" id="Stroke-35" stroke="#21172E" stroke-width="0.998" stroke-linecap="round" stroke-linejoin="round"></path>
                    <path d="M26.2607,66.9017 L182.2607,66.9017" id="Stroke-36" stroke="#21172E" stroke-width="0.998" stroke-linecap="round" stroke-linejoin="round"></path>
                    <path d="M26.2607,138.7328 L182.2607,138.7328" id="Stroke-37" stroke="#21172E" stroke-width="0.998" stroke-linecap="round" stroke-linejoin="round"></path>
                    <path d="M26.2607,196.1976 L182.2607,196.1976" id="Stroke-38" stroke="#21172E" stroke-width="0.998" stroke-linecap="round" stroke-linejoin="round"></path>
                    <path d="M26.2607,224.9295 L182.2607,224.9295" id="Stroke-39" stroke="#21172E" stroke-width="0.998" stroke-linecap="round" stroke-linejoin="round"></path>
                </g>
                <g id="fixed-page-count" transform="translate(492.000000, 18.000000)">
                    <polygon id="Fill-1" fill="#FFFFFF" points="26.08 304.836 234.496 304.836 234.496 26.08 26.08 26.08"></polygon>
                    <polygon id="Stroke-2" stroke="#21172E" stroke-width="4.106" stroke-linecap="round" stroke-linejoin="round" points="26.08 304.836 234.496 304.836 234.496 26.08 26.08 26.08"></polygon>
                    <polygon id="Fill-4" fill="#FFFFFF" points="13.054 291.81 221.47 291.81 221.47 13.054 13.054 13.054"></polygon>
                    <polygon id="Stroke-5" stroke="#21172E" stroke-width="4.106" stroke-linecap="round" stroke-linejoin="round" points="13.054 291.81 221.47 291.81 221.47 13.054 13.054 13.054"></polygon>
                    <polygon id="Fill-6" fill="#FFFFFF" points="0.053 278.809 208.469 278.809 208.469 0.053 0.053 0.053"></polygon>
                    <polygon id="Stroke-7" stroke="#21172E" stroke-width="4.106" stroke-linecap="round" stroke-linejoin="round" points="0.053 278.809 208.469 278.809 208.469 0.053 0.053 0.053"></polygon>
                    <polygon id="Fill-9" fill="#CECAD1" points="162.261 253.809 182.261 253.809 182.261 26.079 162.261 26.079"></polygon>
                    <polygon id="Fill-10" fill="#CECAD1" points="26.261 253.809 46.261 253.809 46.261 26.079 26.261 26.079"></polygon>
                    <polygon id="Fill-11" fill="#CECAD1" points="53.461 253.809 73.461 253.809 73.461 26.079 53.461 26.079"></polygon>
                    <polygon id="Fill-12" fill="#CECAD1" points="80.661 253.295 100.661 253.295 100.661 25.566 80.661 25.566"></polygon>
                    <polygon id="Fill-13" fill="#CECAD1" points="107.861 253.295 127.861 253.295 127.861 25.566 107.861 25.566"></polygon>
                    <polygon id="Fill-14" fill="#CECAD1" points="135.061 253.295 155.061 253.295 155.061 25.566 135.061 25.566"></polygon>
                    <polygon id="Stroke-15" stroke="#21172E" stroke-width="0.998" stroke-linecap="round" stroke-linejoin="round" points="26.261 253.546 182.261 253.546 182.261 26.344 26.261 26.344"></polygon>
                    <path d="M26.2607,46.8085 L182.2607,46.8085" id="Stroke-16" stroke="#21172E" stroke-width="0.998" stroke-linecap="round" stroke-linejoin="round"></path>
                    <path d="M26.2607,35.1693 L182.2607,35.1693" id="Stroke-17" stroke="#21172E" stroke-width="0.998" stroke-linecap="round" stroke-linejoin="round"></path>
                    <path d="M26.2607,233.0321 L182.2607,233.0321" id="Stroke-18" stroke="#21172E" stroke-width="0.998" stroke-linecap="round" stroke-linejoin="round"></path>
                    <path d="M26.2607,221.3929 L182.2607,221.3929" id="Stroke-19" stroke="#21172E" stroke-width="0.998" stroke-linecap="round" stroke-linejoin="round"></path>
                    <path d="M26.2607,244.6708 L182.2607,244.6708" id="Stroke-20" stroke="#21172E" stroke-width="0.998" stroke-linecap="round" stroke-linejoin="round"></path>
                    <path d="M26.2607,186.4759 L182.2607,186.4759" id="Stroke-21" stroke="#21172E" stroke-width="0.998" stroke-linecap="round" stroke-linejoin="round"></path>
                    <path d="M26.2607,174.8368 L182.2607,174.8368" id="Stroke-22" stroke="#21172E" stroke-width="0.998" stroke-linecap="round" stroke-linejoin="round"></path>
                    <path d="M26.2607,151.5589 L182.2607,151.5589" id="Stroke-23" stroke="#21172E" stroke-width="0.998" stroke-linecap="round" stroke-linejoin="round"></path>
                    <path d="M26.2607,139.9198 L182.2607,139.9198" id="Stroke-24" stroke="#21172E" stroke-width="0.998" stroke-linecap="round" stroke-linejoin="round"></path>
                    <path d="M26.2607,128.2811 L182.2607,128.2811" id="Stroke-25" stroke="#21172E" stroke-width="0.998" stroke-linecap="round" stroke-linejoin="round"></path>
                    <path d="M26.2607,105.0033 L182.2607,105.0033" id="Stroke-26" stroke="#21172E" stroke-width="0.998" stroke-linecap="round" stroke-linejoin="round"></path>
                    <path d="M26.2607,93.3641 L182.2607,93.3641" id="Stroke-27" stroke="#21172E" stroke-width="0.998" stroke-linecap="round" stroke-linejoin="round"></path>
                    <path d="M26.2607,81.725 L182.2607,81.725" id="Stroke-28" stroke="#21172E" stroke-width="0.998" stroke-linecap="round" stroke-linejoin="round"></path>
                    <path d="M26.2607,70.0863 L182.2607,70.0863" id="Stroke-29" stroke="#21172E" stroke-width="0.998" stroke-linecap="round" stroke-linejoin="round"></path>
                    <path d="M26.2607,58.4471 L182.2607,58.4471" id="Stroke-30" stroke="#21172E" stroke-width="0.998" stroke-linecap="round" stroke-linejoin="round"></path>
                    <path d="M26.2607,116.6419 L182.2607,116.6419" id="Stroke-31" stroke="#21172E" stroke-width="0.998" stroke-linecap="round" stroke-linejoin="round"></path>
                    <path d="M26.2607,163.1981 L182.2607,163.1981" id="Stroke-32" stroke="#21172E" stroke-width="0.998" stroke-linecap="round" stroke-linejoin="round"></path>
                    <path d="M26.2607,209.7538 L182.2607,209.7538" id="Stroke-33" stroke="#21172E" stroke-width="0.998" stroke-linecap="round" stroke-linejoin="round"></path>
                    <path d="M26.2607,198.1151 L182.2607,198.1151" id="Stroke-34" stroke="#21172E" stroke-width="0.998" stroke-linecap="round" stroke-linejoin="round"></path>
                </g>
            </g>
        </g>
    </g>
</svg>