<?xml version="1.0" encoding="utf-8"?>
<!-- Generator: Adobe Illustrator 22.0.0, SVG Export Plug-In . SVG Version: 6.00 Build 0)  -->
<svg version="1.1" id="Layer_1" xmlns="http://www.w3.org/2000/svg" xmlns:xlink="http://www.w3.org/1999/xlink" x="0px" y="0px"
	 viewBox="0 0 1766.9 1766.9" style="enable-background:new 0 0 1766.9 1766.9;" xml:space="preserve">
<style type="text/css">
	.st0{fill:none;stroke:#231F20;stroke-miterlimit:10;}
	.st1{fill:#FFFFFF;}
</style>
<title>Asset 1</title>
<g>
	<g id="Layer_2_1_">
		<g id="Layer_1-2">
			<path class="st0" d="M163.4,371.4l1440,1024 M137.6,409.8L1629.2,1357 M113.9,449.5L1653,1317.4 M1674.7,1276.5L92.2,490.4
				 M72.7,532.4l1621.4,702.2 M55.5,575.2l1656,616.4 M40.5,619l1686,528.9 M27.8,663.5l1711.3,439.9 M1749.5,1058.3L17.4,708.6
				 M9.4,754.1l1747.9,258.7 M3.9,800L1763,966.9 M1766.2,920.7L0.8,846.2 M0,892.4l1766.9-18 M1765.2,828.2L1.7,938.7 M5.8,984.7
				l1755.3-202.6 M12.3,1030.5l1742.3-294.2 M21.2,1075.9L1745.7,691 M32.4,1120.8l1702-474.7 M46,1165l1674.9-563.1 M61.9,1208.4
				l1643.1-650 M80,1251l1606.8-735.1 M100.4,1292.5l1566.1-818.2 M1644,433.9L122.9,1333 M147.4,1372.2l1472-977.4 M174,1410
				L1592.9,356.9 M202.5,1446.4L1564.4,320.5 M1534,285.6L233,1481.3 M265.2,1514.5L1501.8,252.4 M299,1546L1467.9,220.9
				 M334.5,1575.7l1098-1384.4 M371.5,1603.4l1024-1440 M409.8,1629.3L1357,137.7 M449.5,1653l867.9-1539.1 M490.4,1674.7
				L1276.5,92.2 M532.3,1694.2L1234.6,72.7 M575.2,1711.4l616.4-1656 M619,1726.4l528.9-1686 M663.5,1739.1L1103.4,27.8
				 M708.6,1749.5l349.8-1732 M754.1,1757.5l258.7-1748 M800,1763L966.9,3.9 M846.2,1766.1L920.7,0.8 M874.5,0l18,1766.9 M828.2,1.7
				l110.4,1763.5 M984.7,1761.1L782.2,5.8 M1030.5,1754.6L736.4,12.3 M691,21.2l384.9,1724.5 M1120.8,1734.5L646.1,32.4
				 M1165,1720.9L601.9,46 M1208.4,1705L558.5,61.9 M1251,1686.9L515.9,80 M474.4,100.3l818.2,1566.1 M1333,1644L434,122.8
				 M394.8,147.4l977.4,1472 M356.9,174L1410,1592.9 M1446.4,1564.4L320.5,202.5 M1481.3,1534L285.6,232.9 M252.4,265.1
				l1262.1,1236.7 M1546,1467.9L220.9,299 M1575.7,1432.4L191.2,334.5"/>
		</g>
	</g>
	<circle class="st1" cx="883.5" cy="883.5" r="248.7"/>
</g>
</svg>
