<svg xmlns="http://www.w3.org/2000/svg" viewBox="0 0 1766.89 1766.89"><defs><style>.cls-1{fill:none;stroke:#231f20;stroke-miterlimit:10;}</style></defs><title>Asset 1</title><g id="Layer_2" data-name="Layer 2"><g id="Layer_1-2" data-name="Layer 1"><path class="cls-1" d="M163.44,371.44l1440,1024M137.63,409.83l1491.62,947.23M113.87,449.51,1653,1317.38m21.65-40.87L92.21,490.38m-19.48,42,1621.43,702.23M55.46,575.24l1656,616.41M40.47,619l1686,528.9M27.78,663.48l1711.33,439.93m10.34-45.08L17.44,708.56m-8,45.56,1747.93,258.65M3.91,800,1763,966.85m3.16-46.15L.75,846.18M0,892.43l1766.87-18m-1.68-46.22L1.69,938.66m4.09,46.07L1761.1,782.16M12.29,1030.52,1754.6,736.37M21.18,1075.91,1745.71,691M32.43,1120.78l1702-474.67M46,1165,1720.87,601.9M61.9,1208.43,1705,558.46M80,1251,1686.85,515.91M100.37,1292.52,1666.51,474.36M1644,433.94,122.86,1333m24.57,39.19,1472-977.39M174,1410,1592.88,356.9M202.54,1446.39,1564.35,320.49M1534,285.63l-1301,1195.63m32.17,33.22L1501.77,252.4M299,1546,1467.9,220.91M334.46,1575.66l1098-1384.43m-1061,1412.21,1024-1440M409.83,1629.25,1357.06,137.63M449.51,1653,1317.38,113.87m-827,1560.8L1276.51,92.21m-744.18,1602L1234.56,72.73M575.24,1711.43l616.41-1656M619,1726.42,1147.89,40.47M663.48,1739.11,1103.41,27.78M708.56,1749.45l349.77-1732m-304.21,1740L1012.77,9.48M800,1763,966.85,3.91M846.18,1766.14,920.7.75M874.45,0l18,1766.87M828.23,1.69,938.66,1765.2m46.07-4.1L782.16,5.78M1030.52,1754.6,736.37,12.29M691,21.18l384.94,1724.53m44.87-11.26L646.11,32.43M1165,1720.87,601.9,46m606.53,1659L558.46,61.9M1251,1686.85,515.91,80m-41.55,20.33,818.16,1566.14M1333,1644l-899-1521.17m-39.19,24.57,977.39,1472M356.9,174,1410,1592.88m36.4-28.53L320.49,202.54M1481.26,1534,285.63,232.94M252.4,265.11,1514.48,1501.77m31.5-33.87L220.91,299M1575.66,1432.42,191.23,334.46"/></g></g></svg>