<?xml version="1.0" encoding="UTF-8"?>
<svg width="195px" height="299px" viewBox="0 0 195 299" version="1.1" xmlns="http://www.w3.org/2000/svg" xmlns:xlink="http://www.w3.org/1999/xlink">
    <!-- Generator: Sketch 51.2 (57519) - http://www.bohemiancoding.com/sketch -->
    <title>hederis book</title>
    <desc>Created with Sketch.</desc>
    <defs>
        <polygon id="path-1" points="0.9034 0.293 27.1864 0.293 27.1864 58 0.9034 58"></polygon>
    </defs>
    <g id="Page-1" stroke="none" stroke-width="1" fill="none" fill-rule="evenodd">
        <g id="homepage-2-revised---horizontal-navigation" transform="translate(-850.000000, -192.000000)">
            <g id="hederis-book" transform="translate(851.000000, 193.000000)">
                <g id="blank-Book">
                    <polygon id="Fill-1" fill="#21172E" points="11 297 193 297 193 43 11 43"></polygon>
                    <polygon id="Stroke-2" stroke="#FFFFFF" stroke-linecap="round" stroke-linejoin="round" points="11 297 193 297 193 43 11 43"></polygon>
                    <polygon id="Fill-4" fill="#21172E" points="11 291 187 291 187 48 11 48"></polygon>
                    <polygon id="Stroke-5" stroke="#FFFFFF" stroke-linecap="round" stroke-linejoin="round" points="11 291 187 291 187 48 11 48"></polygon>
                    <polygon id="Fill-6" fill="#21172E" points="0 285.333333 11 296 11 42.6666667 0 32"></polygon>
                    <polygon id="Stroke-7" stroke="#FFFFFF" stroke-linecap="round" stroke-linejoin="round" points="0 286.333333 11 297 11 43.6666667 0 33"></polygon>
                    <polygon id="Fill-9" fill="#FFFFFF" points="0 38 0 281.307937 10.6883857 292 187 292 187 48.6947368 176.316957 38"></polygon>
                    <polygon id="Stroke-10" stroke="#21172E" stroke-linecap="round" stroke-linejoin="round" points="0 38 176.314286 38 187 48.6947368 187 292 10.6857143 292 0 281.305263"></polygon>
                    <polygon id="Fill-12" fill="#21172E" points="0 281 176 281 176 38 0 38"></polygon>
                    <polygon id="Stroke-13" stroke="#21172E" fill="#FFFFFF" stroke-linecap="round" stroke-linejoin="round" points="0 281 176 281 176 38 0 38"></polygon>
                    <polygon id="Fill-15" fill="#21172E" points="0 32.0510328 0 286 160 253.948967 160 0"></polygon>
                    <polygon id="Stroke-16" stroke="#FFFFFF" stroke-width="0.997" stroke-linecap="round" stroke-linejoin="round" points="160 253.948967 0 286 0 32.0510328 160 0"></polygon>
                    <g id="Group-20" transform="translate(176.000000, 280.000000)">
                        <path d="M0.29922,0.29948 L10.69922,10.69948" id="Fill-18" fill="#21172E"></path>
                        <path d="M0.29922,1.29948 L10.69922,11.69948" id="Stroke-19" stroke="#21172E" stroke-linecap="round" stroke-linejoin="round"></path>
                    </g>
                </g>
                <g id="Group-5" transform="translate(66.000000, 114.000000)">
                    <path d="M23.8311,6.5214 L23.8311,26.6814 L23.8311,30.7784 L23.8311,49.2754 L27.8961,48.4624 L27.8961,5.7094 L23.8311,6.5214 Z M0.0001,11.2844 L0.0001,54.0374 L4.0661,53.2244 L4.0661,34.7274 L4.0661,30.6314 L4.0661,10.4714 L0.0001,11.2844 Z" id="Fill-1" fill="#00FF00"></path>
                    <g id="Group-4" transform="translate(0.000000, 0.707000)">
                        <mask id="mask-2" fill="white">
                            <use xlink:href="#path-1"></use>
                        </mask>
                        <g id="Clip-3"></g>
                        <path d="M6.1344,39.8523 C7.9054,38.5603 9.7524,37.8463 11.6924,37.7583 C12.1954,37.7353 12.5424,37.9283 12.7964,38.4133 C14.2514,41.1973 15.3134,44.2103 15.7874,47.5723 C15.9254,48.5473 16.0314,49.5333 16.1584,50.5593 C16.3134,50.5283 16.4344,50.5183 16.5504,50.4773 C16.6934,50.4283 16.8314,50.3533 17.0244,50.2653 C16.9324,44.2463 15.1374,39.2433 12.2984,34.7453 C12.6414,34.2983 12.9404,33.8063 13.3204,33.4273 C14.4664,32.2833 15.6484,31.1883 16.8084,30.0633 C17.1284,29.7523 17.4224,29.4013 17.7284,29.0693 C17.6954,29.0053 17.6614,28.9403 17.6284,28.8773 C15.3404,29.9133 13.1934,31.4253 11.0084,32.7873 C8.7924,34.1683 3.1464,37.6133 0.9034,39.1373 C1.0384,38.4233 1.1764,36.2423 1.2964,35.5613 C1.3644,35.1753 1.5484,34.9213 1.8654,34.7353 C1.9874,34.6643 2.1064,34.5833 2.2264,34.5073 L2.2264,33.7713 C3.6084,32.6983 8.4574,29.8093 9.7714,28.7263 C11.2074,27.5393 12.4964,26.1733 13.3934,24.3743 C13.9604,23.2343 13.9904,23.2493 13.2754,22.4513 C13.2604,22.4343 13.2334,22.4323 13.1284,22.3873 C12.9224,22.6473 12.7254,22.9023 12.5234,23.1503 C11.8454,23.9793 11.0994,24.6883 10.2004,25.1283 C9.8434,25.3043 9.5334,25.3333 9.2124,25.1343 C7.9884,24.3723 6.8624,23.4883 5.9774,22.2533 C5.0434,20.9503 5.0214,20.9643 5.3964,19.1293 C6.1574,15.4053 7.1844,11.7453 8.8344,8.2243 C10.0724,5.5843 11.5804,3.1333 13.2434,0.7813 C13.3954,0.5673 13.6954,0.2663 13.8424,0.2943 C14.7574,0.4723 15.6014,0.8183 16.2934,1.6533 C15.6884,1.7743 15.1814,1.8113 14.6914,1.9863 C13.5304,2.4023 13.1824,3.2313 13.7434,4.2813 C14.0414,4.8373 14.4304,5.3343 14.8474,5.7743 C16.2114,7.2203 17.7774,8.3703 19.4724,9.3133 C20.6294,9.9573 21.5004,10.9183 22.0214,12.2883 C22.5224,13.6043 22.6084,15.0933 22.8194,16.5343 C22.9454,17.4003 22.6154,17.9583 21.9544,18.4403 C20.1854,19.7323 18.3364,20.4473 16.3974,20.5353 C15.8954,20.5583 15.5474,20.3663 15.2934,19.8813 C13.8384,17.0973 12.7764,14.0843 12.3024,10.7213 C12.1644,9.7463 12.0574,8.7593 11.9304,7.7343 C11.7764,7.7653 11.6554,7.7753 11.5384,7.8163 C11.3974,7.8653 11.2584,7.9403 11.0654,8.0283 C11.1564,14.0463 12.9514,19.0503 15.7894,23.5473 C15.4484,23.9953 15.1494,24.4863 14.7694,24.8673 C13.6214,26.0103 12.4414,27.1043 11.2804,28.2293 C10.9604,28.5403 10.6674,28.8913 10.3624,29.2233 C10.3944,29.2883 10.4284,29.3523 10.4604,29.4163 C12.7474,28.3793 14.8964,26.8683 17.0804,25.5053 C19.2964,24.1253 24.9444,20.6793 27.1864,19.1563 C27.0504,19.8693 26.9124,22.0513 26.7924,22.7323 C26.7244,23.1183 26.5414,23.3713 26.2244,23.5583 C26.1024,23.6303 25.9834,23.7093 25.8634,23.7873 L25.8634,24.5213 C24.4814,25.5963 19.6304,28.4853 18.3194,29.5673 C16.8814,30.7533 15.5934,32.1203 14.6974,33.9183 C14.1274,35.0593 14.0984,35.0433 14.8144,35.8423 C14.8284,35.8583 14.8564,35.8613 14.9604,35.9053 C15.1674,35.6463 15.3634,35.3913 15.5674,35.1423 C16.2444,34.3133 16.9894,33.6053 17.8884,33.1643 C18.2464,32.9893 18.5554,32.9593 18.8764,33.1593 C20.1014,33.9223 21.2284,34.8053 22.1124,36.0403 C23.0454,37.3433 23.0694,37.3283 22.6934,39.1633 C21.9324,42.8873 20.9054,46.5483 19.2554,50.0703 C18.0184,52.7083 16.5094,55.1613 14.8464,57.5113 C14.6944,57.7263 14.3944,58.0263 14.2464,57.9983 C13.3314,57.8213 12.4884,57.4743 11.7954,56.6403 C12.4014,56.5193 12.9074,56.4823 13.3984,56.3073 C14.5594,55.8913 14.9074,55.0623 14.3454,54.0123 C14.0484,53.4563 13.6584,52.9593 13.2424,52.5193 C11.8774,51.0723 10.3124,49.9233 8.6164,48.9803 C7.4594,48.3353 6.5884,47.3743 6.0674,46.0043 C5.5674,44.6883 5.4814,43.2003 5.2714,41.7593 C5.1444,40.8943 5.4734,40.3343 6.1344,39.8523" id="Fill-2" fill="#00FF00" mask="url(#mask-2)"></path>
                    </g>
                </g>
            </g>
        </g>
    </g>
</svg>