<?xml version="1.0" encoding="UTF-8"?>
<svg width="32px" height="58px" viewBox="0 0 32 58" version="1.1" xmlns="http://www.w3.org/2000/svg" xmlns:xlink="http://www.w3.org/1999/xlink">
    <!-- Generator: Sketch 51.2 (57519) - http://www.bohemiancoding.com/sketch -->
    <title>Hederis logo, green@1x</title>
    <desc>Created with Sketch.</desc>
    <defs></defs>
    <g id="Page-1" stroke="none" stroke-width="1" fill="none" fill-rule="evenodd">
        <g id="homepage-2-revised---horizontal-navigation" transform="translate(-51.000000, -30.000000)" fill="#00FF00">
            <g id="Group-8" transform="translate(51.000000, 30.000000)">
                <path d="M31.8303571,7.48553293 L31.8303571,50.0154619 L27.1911148,50.0154619 L27.1911148,31.6149731 L27.1911148,27.5403447 L27.1911148,27.4736943 C24.933914,28.3560662 21.9427706,29.4513215 20.9027668,30.0183475 C19.2627221,30.9126568 17.7928233,32.0158704 16.7699348,33.626423 C16.1205617,34.6480644 16.0863312,34.627174 16.9028298,35.564259 C16.919945,35.5831598 16.9511552,35.5911181 17.0699553,35.6557789 C17.3055418,35.4389164 17.5300537,35.2240434 17.7616131,35.0171287 C18.5348202,34.3277445 19.3865561,33.7716612 20.4104514,33.5110282 C20.8192041,33.4075709 21.1725838,33.4394039 21.538045,33.7020264 C22.9364624,34.704767 24.2211137,35.8069858 25.2299073,37.2116185 C26.2950806,38.6928494 26.3212569,38.6829016 25.8933754,40.4337185 C25.0245242,43.9870809 23.8526323,47.4250487 21.9709604,50.6003939 C20.558448,52.9789184 18.8368542,55.1186952 16.9390739,57.1261659 C16.7659077,57.3092059 16.4236025,57.5489484 16.2554702,57.4912511 C15.2114393,57.1331294 14.2489576,56.6208165 13.4586353,55.6528933 C14.1492864,55.6528933 14.7281849,55.7175542 15.2869478,55.6399611 C16.6118703,55.4569212 17.0095485,54.7018814 16.3692364,53.5459443 C16.0289447,52.9331584 15.5849547,52.3621534 15.1107613,51.8408874 C13.5522659,50.1308566 11.7662381,48.6764848 9.8312069,47.4011739 C8.5113183,46.5307394 7.5186332,45.4006666 6.92261942,43.9343575 C6.35177515,42.5257457 6.25411749,41.0276035 6.01349707,39.5523413 C5.86952752,38.666985 6.24505647,38.1755626 6.99913471,37.8273888 C9.01873543,36.8942829 11.1289464,36.551083 13.3408421,36.8495177 C13.9147067,36.926116 14.311378,37.1867489 14.6003239,37.7199523 C16.2605041,40.7789079 17.4726673,43.9870809 18.0133081,47.4260434 C18.1713726,48.4238101 18.2921862,49.4255559 18.4371625,50.4710722 C18.6143558,50.4710722 18.7512779,50.4849991 18.8851796,50.4680878 C19.0462644,50.4471974 19.2043289,50.4004426 19.4248137,50.3507035 C19.3201086,44.3452026 17.272318,39.0111797 14.0324999,33.9726072 C14.4231306,33.5955847 14.764429,33.1658388 15.1983512,32.8644197 C16.5061584,31.9541939 17.8542369,31.0996759 19.1791594,30.2113352 C19.5436138,29.965624 19.8788715,29.6751476 20.2282242,29.4055616 C20.1899665,29.334932 20.1517089,29.2643025 20.114458,29.1946677 C17.5048842,29.7706467 15.0533749,30.8479959 12.5605875,31.7681696 C10.883292,32.387919 7.48540946,33.6095117 4.63924234,34.6749236 L4.63924234,50.0154619 L0,50.0154619 L0,7.48553293 L4.63924234,7.48553293 L4.63924234,27.5403447 L4.63924234,30.1148414 C6.91758552,29.2185425 10.0718273,28.0685741 11.149082,27.4816525 C12.7881198,26.5873432 14.2580187,25.4841296 15.2819139,23.873577 C15.9302803,22.8519356 15.963504,22.872826 15.1470054,21.9367358 C15.1298902,21.9168402 15.09868,21.9098767 14.9798799,21.8442211 C14.7442934,22.0620784 14.5207882,22.2759566 14.2882221,22.4828713 C13.5160218,23.1722555 12.6642859,23.7293336 11.6393838,23.9889718 C11.2316379,24.0924291 10.8782581,24.0605961 10.5117902,23.7979736 C9.11538631,22.7962278 7.82872144,21.6930142 6.81992786,20.2893763 C5.75576138,18.8071506 5.72857832,18.8170984 6.15746661,17.0662815 C7.02531099,13.5129191 8.19720293,10.0759461 10.0798816,6.90060092 C11.4913872,4.52108159 13.212981,2.38229958 15.1117681,0.37383406 C15.2839275,0.190794111 15.6262327,-0.0489484303 15.794365,0.00874894482 C16.8383959,0.366870583 17.8008776,0.879183483 18.5922066,1.84810147 C17.9015556,1.84810147 17.3216503,1.78344062 16.7628873,1.86003886 C15.4379648,2.04307881 15.0402867,2.7981186 15.6816056,3.95505044 C16.0208905,4.56684158 16.4648805,5.13884142 16.9400806,5.66010736 C18.4975693,7.3691434 20.2835971,8.82351516 22.2176215,10.0998209 C23.5395237,10.9702554 24.5322088,12.0993334 25.126209,13.5656425 C25.69806,14.9742543 25.7957177,16.4723965 26.0363381,17.9476587 C26.1803077,18.8340097 25.8057855,19.3244374 25.0517073,19.6726112 C23.0310998,20.6057171 20.9229024,20.948917 18.7089931,20.6514771 C18.1361353,20.573884 17.739464,20.3142458 17.4495113,19.7810425 C15.7893311,16.7220869 14.5771679,13.5139138 14.0365271,10.0739566 C13.8794694,9.07718466 13.757649,8.07444407 13.6126727,7.02992262 C13.4364862,7.02992262 13.2985573,7.01500089 13.1656623,7.03290697 C13.0035708,7.0537974 12.8465131,7.10055217 12.6250215,7.1492965 C12.7297266,13.1547974 14.7785239,18.4888203 18.0163285,23.5273928 C17.6277114,23.9044153 17.2854062,24.3341612 16.8524908,24.6365751 C15.54267,25.5458061 14.1955983,26.4003241 12.8716826,27.2886648 C12.5072282,27.534376 12.1719705,27.8248524 11.8226178,28.0944384 C11.8608754,28.165068 11.8981263,28.2356975 11.9353771,28.3063271 C14.5459577,27.7293533 16.9974671,26.6529989 19.4892476,25.7318304 C21.1242584,25.1289923 24.3912596,23.9531596 27.1911148,22.9076434 L27.1911148,7.48553293 L31.8303571,7.48553293 Z" id="Hederis-logo,-green"></path>
            </g>
        </g>
    </g>
</svg>