<?xml version="1.0" encoding="utf-8"?>
<!-- Generator: Adobe Illustrator 28.1.0, SVG Export Plug-In . SVG Version: 6.00 Build 0)  -->
<svg version="1.1" id="Layer_1" xmlns="http://www.w3.org/2000/svg" xmlns:xlink="http://www.w3.org/1999/xlink" x="0px" y="0px"
	 viewBox="0 0 154 45" style="enable-background:new 0 0 154 45;" xml:space="preserve">
<style type="text/css">
	.st0{filter:url(#Adobe_OpacityMaskFilter);}
	.st1{fill-rule:evenodd;clip-rule:evenodd;fill:#FFFFFF;}
	.st2{mask:url(#mask-2_00000117662856289492854270000001901852196712253064_);fill-rule:evenodd;clip-rule:evenodd;fill:#FFFFFF;}
</style>
<g id="Page-1">
	<g id="homepage-2-revised---vertical-navigation" transform="translate(-53.000000, -6202.000000)">
		<g id="Hederis-wordmark_x2C_-purple" transform="translate(53.000000, 6202.000000)">
			<g id="Clip-2">
			</g>
			<defs>
				<filter id="Adobe_OpacityMaskFilter" filterUnits="userSpaceOnUse" x="0" y="0" width="154" height="45">
					<feColorMatrix  type="matrix" values="1 0 0 0 0  0 1 0 0 0  0 0 1 0 0  0 0 0 1 0"/>
				</filter>
			</defs>
			
				<mask maskUnits="userSpaceOnUse" x="0" y="0" width="154" height="45" id="mask-2_00000117662856289492854270000001901852196712253064_">
				<g class="st0">
					<polygon id="path-1_00000152255602126168908960000017709703114071042963_" class="st1" points="0,0 154,0 154,45 0,45 					"/>
				</g>
			</mask>
			<path id="Fill-1" class="st2" d="M85.7,28c0,0.7,0.1,1.4,0.2,2l13.4-4.9c-0.1-2.9-0.7-5-1.7-6.3c-1-1.3-2.6-1.9-4.6-1.9
				c-2,0-4,0.7-5.7,2c-0.9,2.2-1.4,4.6-1.5,6.6V28z M102.8,34.9l-3.3,3.5c-2,1-4.2,1.5-6.3,1.5c-3.5,0-6.2-1.1-8.2-3.2
				c-2-2.2-3-5.2-3-9c0-2.8,0.5-5.3,1.6-7.6C87.4,16,90.9,14,94,14c5.7,0,8.5,3.8,8.5,11.5l-2.6,2.2l0,0v0l-13.3,4.9
				c0.4,0.8,0.8,1.5,1.4,2.1c1.5,1.5,3.4,2.3,5.9,2.3c1.2,0,2.3-0.2,3.4-0.6c1.1-0.4,1.9-0.7,2.5-1.1c0.6-0.3,1.3-0.8,2.2-1.5
				L102.8,34.9z M33.2,28c0,0.7,0.1,1.4,0.2,2l13.4-4.9c-0.1-2.9-0.7-5-1.7-6.3c-1-1.3-2.6-1.9-4.6-1.9c-2,0-4,0.7-5.7,2
				c-0.9,2.2-1.4,4.6-1.5,6.6V28z M50.4,34.9l-3.3,3.5c-2,1-4.2,1.5-6.3,1.5c-3.5,0-6.2-1.1-8.2-3.2c-2-2.2-3-5.2-3-9
				c0-2.8,0.5-5.3,1.6-7.6C34.9,16,38.4,14,41.6,14c5.7,0,8.5,3.8,8.5,11.5l-2.6,2.2l0,0v0l-13.3,4.9c0.4,0.8,0.8,1.5,1.4,2.1
				c1.5,1.5,3.4,2.3,5.9,2.3c1.2,0,2.3-0.2,3.4-0.6c1.1-0.4,1.9-0.7,2.5-1.1c0.6-0.3,1.3-0.8,2.2-1.5L50.4,34.9z M143.6,39.9
				c3.3,0,6.5-1.6,9.7-4.9c0.5-0.9,0.7-1.9,0.7-3.1c0-1.1-0.2-2.1-0.7-3c-0.4-0.8-1.1-1.5-2-2.1c-0.9-0.5-1.7-1-2.5-1.3
				c-0.8-0.3-1.8-0.6-3-0.9c-0.3-0.1-0.7-0.2-1.4-0.3c-0.6-0.1-1.1-0.3-1.3-0.3c-0.2-0.1-0.6-0.2-1.1-0.3s-0.8-0.3-1-0.4
				c-0.2-0.1-0.5-0.3-0.8-0.5c-0.3-0.2-0.5-0.4-0.7-0.7c-0.1-0.2-0.2-0.5-0.3-0.8c-0.1-0.3-0.1-0.7-0.1-1.1c0-0.7,0.1-1.4,0.4-2.2
				c1.5-0.9,3.1-1.4,4.8-1.4c1.5,0,2.9,0.3,4.1,1c1.2,0.6,2.1,1.5,2.7,2.5l2.4-2.4c-1.5-2.5-4.1-3.7-7.7-3.7c-2.6,0-5.6,1.4-8.8,4.3
				c-0.6,1-0.8,2-0.8,3.2c0,1.9,0.7,3.2,2.2,4.1c1.4,0.9,3.4,1.6,6,2.1c2.1,0.4,3.7,1.1,4.9,1.9c1.2,0.8,1.8,2,1.8,3.6
				c0,0.6-0.1,1.3-0.4,2.1c-1.6,1.1-3.5,1.6-5.5,1.6c-1.8,0-3.5-0.4-4.8-1.1c-1.4-0.8-2.4-1.7-3.1-2.8l-2.5,2.5
				c0.8,1.3,2,2.3,3.6,3.1C139.7,39.5,141.5,39.9,143.6,39.9z M129.5,8.4c0.4-0.5,0.6-1.2,0.6-2c0-0.8-0.2-1.5-0.6-2
				c-0.4-0.5-1-0.8-1.8-0.8c-0.8,0-1.4,0.3-1.8,0.8c-0.4,0.5-0.6,1.2-0.6,2c0,0.8,0.2,1.5,0.6,2c0.4,0.5,1,0.8,1.8,0.8
				C128.5,9.2,129.1,8.9,129.5,8.4z M126,39.1h3.4V14.7H126V39.1z M112,21.1c1.8-2.1,3.7-3.1,5.6-3.1c0.8,0,1.5,0.2,2.2,0.5l0.9-3.5
				c-0.5-0.6-1.3-0.9-2.3-0.9c-1.6,0-3.7,1.8-6.5,5.3v-4.6h-3.5v24.4h3.5V21.1z M75.9,39.1V3.8h-3.6v11.9C70.8,14.5,69,14,66.7,14
				c-3,0-6.3,2-10.1,6c-1.2,2.7-1.8,5.4-1.8,8.1c0,3.5,0.8,6.3,2.5,8.5c1.7,2.2,3.9,3.3,6.7,3.3c0.9,0,1.9-0.3,2.9-0.8
				c1.1-0.5,1.9-1,2.6-1.6c0.7-0.5,1.6-1.3,2.8-2.3v3.9H75.9z M65.2,36.7c-2.2,0-3.9-0.9-5.1-2.6c-1.1-1.7-1.7-4.2-1.7-7.4
				c0-2.5,0.5-5.1,1.5-7.7c1.8-1.4,3.7-2,5.7-2c2.7,0,4.9,0.8,6.5,2.4v13.8c-1,0.8-1.7,1.4-2.2,1.8c-0.5,0.4-1.2,0.8-2.1,1.1
				C67.1,36.5,66.1,36.7,65.2,36.7z M24.5,5.9v33.3h-3.6V24.7v-3.2v-0.1c-1.7,0.7-4,1.5-4.8,2c-1.3,0.7-2.4,1.6-3.2,2.8
				c-0.5,0.8-0.5,0.8,0.1,1.5c0,0,0,0,0.1,0.1c0.2-0.2,0.4-0.3,0.5-0.5c0.6-0.5,1.2-1,2-1.2c0.3-0.1,0.6-0.1,0.9,0.1
				c1.1,0.8,2.1,1.6,2.8,2.7c0.8,1.2,0.8,1.2,0.5,2.5c-0.7,2.8-1.6,5.5-3,8c-1.1,1.9-2.4,3.5-3.9,5.1c-0.1,0.1-0.4,0.3-0.5,0.3
				c-0.8-0.3-1.5-0.7-2.1-1.4c0.5,0,1,0.1,1.4,0c1-0.1,1.3-0.7,0.8-1.6c-0.3-0.5-0.6-0.9-1-1.3c-1.2-1.3-2.6-2.5-4.1-3.5
				c-1-0.7-1.8-1.6-2.2-2.7c-0.4-1.1-0.5-2.3-0.7-3.4c-0.1-0.7,0.2-1.1,0.8-1.3c1.6-0.7,3.2-1,4.9-0.8c0.4,0.1,0.7,0.3,1,0.7
				c1.3,2.4,2.2,4.9,2.6,7.6c0.1,0.8,0.2,1.6,0.3,2.4c0.1,0,0.2,0,0.3,0c0.1,0,0.2-0.1,0.4-0.1c-0.1-4.7-1.7-8.9-4.1-12.8
				c0.3-0.3,0.6-0.6,0.9-0.9c1-0.7,2-1.4,3.1-2.1c0.3-0.2,0.5-0.4,0.8-0.6c0-0.1-0.1-0.1-0.1-0.2c-2,0.5-3.9,1.3-5.8,2
				c-1.3,0.5-3.9,1.4-6.1,2.3v12H0V5.9h3.6v15.7v2c1.8-0.7,4.2-1.6,5-2.1c1.3-0.7,2.4-1.6,3.2-2.8c0.5-0.8,0.5-0.8-0.1-1.5
				c0,0,0,0-0.1-0.1c-0.2,0.2-0.4,0.3-0.5,0.5c-0.6,0.5-1.2,1-2,1.2c-0.3,0.1-0.6,0.1-0.9-0.1C7,17.8,6,17,5.2,15.9
				c-0.8-1.2-0.8-1.2-0.5-2.5c0.7-2.8,1.6-5.5,3-8c1.1-1.9,2.4-3.5,3.9-5.1C11.7,0.1,12,0,12.1,0c0.8,0.3,1.5,0.7,2.1,1.4
				c-0.5,0-1,0-1.4,0c-1,0.1-1.3,0.7-0.8,1.6c0.3,0.5,0.6,0.9,1,1.3c1.2,1.3,2.6,2.5,4.1,3.5c1,0.7,1.8,1.6,2.2,2.7
				c0.4,1.1,0.5,2.3,0.7,3.4c0.1,0.7-0.2,1.1-0.8,1.3c-1.6,0.7-3.2,1-4.9,0.8c-0.4-0.1-0.7-0.3-1-0.7c-1.3-2.4-2.2-4.9-2.6-7.6
				c-0.1-0.8-0.2-1.6-0.3-2.4c-0.1,0-0.2,0-0.3,0c-0.1,0-0.2,0.1-0.4,0.1c0.1,4.7,1.7,8.9,4.1,12.8c-0.3,0.3-0.6,0.6-0.9,0.9
				c-1,0.7-2,1.4-3.1,2.1c-0.3,0.2-0.5,0.4-0.8,0.6c0,0.1,0.1,0.1,0.1,0.2c2-0.5,3.9-1.3,5.8-2c1.3-0.5,3.8-1.4,5.9-2.2V5.9H24.5z"
				/>
		</g>
	</g>
</g>
</svg>
