<?xml version="1.0" encoding="UTF-8"?>
<svg width="489px" height="416px" viewBox="0 0 489 416" version="1.1" xmlns="http://www.w3.org/2000/svg" xmlns:xlink="http://www.w3.org/1999/xlink">
    <!-- Generator: Sketch 51.2 (57519) - http://www.bohemiancoding.com/sketch -->
    <title>EPUB PDF pair and circle@1x</title>
    <desc>Created with Sketch.</desc>
    <defs>
        <polygon id="path-1" points="0 308 488.468 308 488.468 0.217 0 0.217"></polygon>
    </defs>
    <g id="Page-1" stroke="none" stroke-width="1" fill="none" fill-rule="evenodd">
        <g id="homepage-2" transform="translate(-810.000000, -7451.000000)">
            <g id="Group-22-Copy" transform="translate(176.000000, 7214.000000)">
                <g id="EPUB-PDF-pair-and-circle" transform="translate(634.000000, 237.000000)">
                    <circle id="Oval-3" fill="#00FF00" fill-rule="nonzero" cx="244" cy="208" r="208"></circle>
                    <g id="Group-64" transform="translate(0.000000, 54.000000)">
                        <polygon id="Fill-1" fill="#21172E" points="12.484 307.283 199.214 307.283 199.214 46.41 12.484 46.41"></polygon>
                        <polygon id="Stroke-2" stroke="#21172E" stroke-width="3" stroke-linecap="round" stroke-linejoin="round" points="12.484 307.283 199.214 307.283 199.214 46.41 12.484 46.41"></polygon>
                        <polygon id="Fill-4" fill="#FFFFFF" points="12.484 301.79 193.722 301.79 193.722 51.901 12.484 51.901"></polygon>
                        <polygon id="Stroke-5" stroke="#21172E" stroke-width="3" stroke-linecap="round" stroke-linejoin="round" points="12.484 301.79 193.722 301.79 193.722 51.901 12.484 51.901"></polygon>
                        <polygon id="Fill-6" fill="#21172E" points="1.5001 296.2993 12.4841 307.2823 12.4841 46.4093 1.5001 35.4253"></polygon>
                        <polygon id="Stroke-7" stroke="#21172E" stroke-width="3" stroke-linecap="round" stroke-linejoin="round" points="1.5001 296.2993 12.4841 307.2823 12.4841 46.4093 1.5001 35.4253"></polygon>
                        <polygon id="Fill-9" fill="#FFFFFF" points="1.5001 40.9179 182.7381 40.9179 193.7221 51.9019 193.7221 301.7909 12.4841 301.7909 1.5001 290.8069"></polygon>
                        <polygon id="Stroke-10" stroke="#21172E" stroke-width="3" stroke-linecap="round" stroke-linejoin="round" points="1.5001 40.9179 182.7381 40.9179 193.7221 51.9019 193.7221 301.7909 12.4841 301.7909 1.5001 290.8069"></polygon>
                        <polygon id="Fill-12" fill="#FFFFFF" points="1.5 290.807 182.738 290.807 182.738 40.918 1.5 40.918"></polygon>
                        <polygon id="Stroke-13" stroke="#21172E" stroke-width="3" stroke-linecap="round" stroke-linejoin="round" points="1.5 290.807 182.738 290.807 182.738 40.918 1.5 40.918"></polygon>
                        <polygon id="Fill-15" fill="#21172E" points="166.2619 263.3735 1.4999 296.2995 1.4999 35.4255 166.2619 2.4995"></polygon>
                        <polygon id="Stroke-16" stroke="#21172E" stroke-width="3" stroke-linecap="round" stroke-linejoin="round" points="166.2619 263.3735 1.4999 296.2995 1.4999 35.4255 166.2619 2.4995"></polygon>
                        <g id="Group-20" transform="translate(182.000000, 290.783000)">
                            <path d="M0.7384,0.0241 L11.7224,11.0071" id="Fill-18" fill="#FFFFFF"></path>
                            <path d="M0.7384,0.0241 L11.7224,11.0071" id="Stroke-19" stroke="#21172E" stroke-width="3" stroke-linecap="round" stroke-linejoin="round"></path>
                        </g>
                        <polygon id="Fill-21" fill="#FFFFFF" points="63.7414 137.6845 63.1374 140.0875 50.0734 142.6465 50.0734 120.2025 63.1374 117.3735 62.5324 119.8105 52.2504 121.5225 52.2504 129.6875 61.2014 127.9335 60.5964 130.2695 52.2504 131.5695 52.2504 140.1705"></polygon>
                        <polygon id="Stroke-22" stroke="#FFFFFF" points="63.7414 137.6845 63.1374 140.0875 50.0734 142.6465 50.0734 120.2025 63.1374 117.3735 62.5324 119.8105 52.2504 121.5225 52.2504 129.6875 61.2014 127.9335 60.5964 130.2695 52.2504 131.5695 52.2504 140.1705"></polygon>
                        <g id="Group-63" transform="translate(0.000000, 0.783000)">
                            <path d="M73.7204,128.0246 C75.1114,127.7526 76.3714,127.2706 77.5004,126.5786 C78.3064,124.8076 78.7094,122.9706 78.7094,121.0666 C78.7094,119.0286 78.2714,117.6356 77.3944,116.8886 C76.5174,116.1426 75.0604,115.9686 73.0244,116.3676 C71.9564,116.5766 70.7464,116.9146 69.3964,117.3806 L69.3964,128.4346 C70.9484,128.4226 72.3894,128.2856 73.7204,128.0246 M72.9644,130.2226 C71.8754,130.4356 70.6864,130.5346 69.3964,130.5186 L69.3964,138.0786 L67.2194,138.5046 L67.2194,116.0936 C69.6584,115.2576 71.6234,114.6926 73.1154,114.4006 C75.8374,113.8676 77.8434,114.0516 79.1334,114.9526 C80.4234,115.8536 81.0684,117.5806 81.0684,120.1336 C81.0684,121.9256 80.7254,123.6506 80.0404,125.3086 C77.8234,128.0946 75.4644,129.7326 72.9644,130.2226" id="Fill-23" fill="#FFFFFF"></path>
                            <path d="M73.7204,128.0246 C75.1114,127.7526 76.3714,127.2706 77.5004,126.5786 C78.3064,124.8076 78.7094,122.9706 78.7094,121.0666 C78.7094,119.0286 78.2714,117.6356 77.3944,116.8886 C76.5174,116.1426 75.0604,115.9686 73.0244,116.3676 C71.9564,116.5766 70.7464,116.9146 69.3964,117.3806 L69.3964,128.4346 C70.9484,128.4226 72.3894,128.2856 73.7204,128.0246 Z M72.9644,130.2226 C71.8754,130.4356 70.6864,130.5346 69.3964,130.5186 L69.3964,138.0786 L67.2194,138.5046 L67.2194,116.0936 C69.6584,115.2576 71.6234,114.6926 73.1154,114.4006 C75.8374,113.8676 77.8434,114.0516 79.1334,114.9526 C80.4234,115.8536 81.0684,117.5806 81.0684,120.1336 C81.0684,121.9256 80.7254,123.6506 80.0404,125.3086 C77.8234,128.0946 75.4644,129.7326 72.9644,130.2226 Z" id="Stroke-25" stroke="#FFFFFF"></path>
                            <path d="M91.713,134.2096 C89.475,134.6476 87.721,134.2416 86.451,132.9896 C85.181,131.7376 84.546,129.5776 84.546,126.5086 L84.546,112.6656 L86.844,112.2146 L86.844,126.0586 C86.844,130.8076 88.719,132.8136 92.469,132.0796 C93.819,131.8146 95.2,131.1066 96.612,129.9576 C97.156,127.8566 97.428,125.3736 97.428,122.5056 L97.428,110.1416 L99.636,109.7086 L99.636,121.3006 C99.636,124.3476 99.373,126.9076 98.85,128.9816 C97.882,130.1116 97.161,130.9246 96.687,131.4206 C96.213,131.9176 95.523,132.4556 94.616,133.0366 C93.709,133.6176 92.741,134.0086 91.713,134.2096" id="Fill-27" fill="#FFFFFF"></path>
                            <path d="M91.713,134.2096 C89.475,134.6476 87.721,134.2416 86.451,132.9896 C85.181,131.7376 84.546,129.5776 84.546,126.5086 L84.546,112.6656 L86.844,112.2146 L86.844,126.0586 C86.844,130.8076 88.719,132.8136 92.469,132.0796 C93.819,131.8146 95.2,131.1066 96.612,129.9576 C97.156,127.8566 97.428,125.3736 97.428,122.5056 L97.428,110.1416 L99.636,109.7086 L99.636,121.3006 C99.636,124.3476 99.373,126.9076 98.85,128.9816 C97.882,130.1116 97.161,130.9246 96.687,131.4206 C96.213,131.9176 95.523,132.4556 94.616,133.0366 C93.709,133.6176 92.741,134.0086 91.713,134.2096 Z" id="Stroke-29" stroke="#FFFFFF"></path>
                            <path d="M110.7038,128.3727 C112.5988,128.0017 114.2618,127.3517 115.6928,126.4207 C116.1168,125.1507 116.3288,123.9777 116.3288,122.9027 C116.3288,119.9237 114.8358,118.7267 111.8528,119.3107 L106.4998,120.3597 L106.4998,128.9267 C107.8908,128.8337 109.2918,128.6487 110.7038,128.3727 M109.9478,109.0327 C108.8388,109.2497 107.6898,109.5757 106.4998,110.0107 L106.4998,118.4777 L112.8508,117.2337 C114.3428,115.7317 115.0888,114.0967 115.0888,112.3267 C115.0888,110.9377 114.7148,109.9467 113.9698,109.3537 C113.2238,108.7607 111.8828,108.6537 109.9478,109.0327 M110.6428,130.2997 C107.9818,130.8207 105.8748,131.1327 104.3228,131.2357 L104.3228,108.8247 C106.3988,108.0597 108.3848,107.4907 110.2808,107.1197 C112.6788,106.6497 114.4688,106.7867 115.6478,107.5297 C116.8278,108.2727 117.4168,109.6527 117.4168,111.6687 C117.4168,112.6767 117.1848,113.7857 116.7218,114.9977 C115.7738,115.8997 114.9268,116.6587 114.1818,117.2757 C115.4708,117.2017 116.5548,117.5667 117.4328,118.3687 C118.3088,119.1707 118.7468,120.3237 118.7468,121.8237 C118.7468,122.8987 118.5358,124.0387 118.1128,125.2407 C117.4468,126.0217 116.9738,126.5617 116.6908,126.8637 C116.4088,127.1657 115.9348,127.6057 115.2698,128.1837 C114.6048,128.7627 113.9038,129.2127 113.1678,129.5357 C112.4328,129.8597 111.5908,130.1137 110.6428,130.2997" id="Fill-31" fill="#FFFFFF"></path>
                            <path d="M110.7038,128.3727 C112.5988,128.0017 114.2618,127.3517 115.6928,126.4207 C116.1168,125.1507 116.3288,123.9777 116.3288,122.9027 C116.3288,119.9237 114.8358,118.7267 111.8528,119.3107 L106.4998,120.3597 L106.4998,128.9267 C107.8908,128.8337 109.2918,128.6487 110.7038,128.3727 Z M109.9478,109.0327 C108.8388,109.2497 107.6898,109.5757 106.4998,110.0107 L106.4998,118.4777 L112.8508,117.2337 C114.3428,115.7317 115.0888,114.0967 115.0888,112.3267 C115.0888,110.9377 114.7148,109.9467 113.9698,109.3537 C113.2238,108.7607 111.8828,108.6537 109.9478,109.0327 Z M110.6428,130.2997 C107.9818,130.8207 105.8748,131.1327 104.3228,131.2357 L104.3228,108.8247 C106.3988,108.0597 108.3848,107.4907 110.2808,107.1197 C112.6788,106.6497 114.4688,106.7867 115.6478,107.5297 C116.8278,108.2727 117.4168,109.6527 117.4168,111.6687 C117.4168,112.6767 117.1848,113.7857 116.7218,114.9977 C115.7738,115.8997 114.9268,116.6587 114.1818,117.2757 C115.4708,117.2017 116.5548,117.5667 117.4328,118.3687 C118.3088,119.1707 118.7468,120.3237 118.7468,121.8237 C118.7468,122.8987 118.5358,124.0387 118.1128,125.2407 C117.4468,126.0217 116.9738,126.5617 116.6908,126.8637 C116.4088,127.1657 115.9348,127.6057 115.2698,128.1837 C114.6048,128.7627 113.9038,129.2127 113.1678,129.5357 C112.4328,129.8597 111.5908,130.1137 110.6428,130.2997 Z" id="Stroke-33" stroke="#FFFFFF"></path>
                            <polygon id="Stroke-35" stroke="#FFFFFF" stroke-width="3" stroke-linecap="round" stroke-linejoin="round" points="26.7912 75.2721 26.7912 239.4531 140.9712 217.0831 140.9712 80.5691 116.0702 57.7801"></polygon>
                            <polygon id="Stroke-37" stroke="#FFFFFF" stroke-width="3" stroke-linecap="round" stroke-linejoin="round" points="116.071 85.4479 140.971 80.5699 140.971 80.5689 116.071 57.7809"></polygon>
                            <mask id="mask-2" fill="white">
                                <use xlink:href="#path-1"></use>
                            </mask>
                            <g id="Clip-40"></g>
                            <polygon id="Fill-39" fill="#21172E" mask="url(#mask-2)" points="300.238 306.5 486.968 306.5 486.968 45.627 300.238 45.627"></polygon>
                            <polygon id="Stroke-41" stroke="#21172E" stroke-width="3" stroke-linecap="round" stroke-linejoin="round" mask="url(#mask-2)" points="300.238 306.5 486.968 306.5 486.968 45.627 300.238 45.627"></polygon>
                            <polygon id="Fill-42" fill="#FFFFFF" mask="url(#mask-2)" points="300.238 301.007 481.476 301.007 481.476 51.118 300.238 51.118"></polygon>
                            <polygon id="Stroke-43" stroke="#21172E" stroke-width="3" stroke-linecap="round" stroke-linejoin="round" mask="url(#mask-2)" points="300.238 301.007 481.476 301.007 481.476 51.118 300.238 51.118"></polygon>
                            <polygon id="Fill-44" fill="#21172E" mask="url(#mask-2)" points="289.2536 295.5163 300.2376 306.4993 300.2376 45.6263 289.2536 34.6423"></polygon>
                            <polygon id="Stroke-45" stroke="#21172E" stroke-width="3" stroke-linecap="round" stroke-linejoin="round" mask="url(#mask-2)" points="289.2536 295.5163 300.2376 306.4993 300.2376 45.6263 289.2536 34.6423"></polygon>
                            <polygon id="Fill-46" fill="#FFFFFF" mask="url(#mask-2)" points="289.2536 40.1349 470.4916 40.1349 481.4756 51.1189 481.4756 301.0079 300.2376 301.0079 289.2536 290.0239"></polygon>
                            <polygon id="Stroke-47" stroke="#21172E" stroke-width="3" stroke-linecap="round" stroke-linejoin="round" mask="url(#mask-2)" points="289.2536 40.1349 470.4916 40.1349 481.4756 51.1189 481.4756 301.0079 300.2376 301.0079 289.2536 290.0239"></polygon>
                            <polygon id="Fill-48" fill="#FFFFFF" mask="url(#mask-2)" points="289.254 290.024 470.492 290.024 470.492 40.135 289.254 40.135"></polygon>
                            <polygon id="Stroke-49" stroke="#21172E" stroke-width="3" stroke-linecap="round" stroke-linejoin="round" mask="url(#mask-2)" points="289.254 290.024 470.492 290.024 470.492 40.135 289.254 40.135"></polygon>
                            <polygon id="Fill-50" fill="#21172E" mask="url(#mask-2)" points="454.0158 262.5905 289.2538 295.5165 289.2538 34.6425 454.0158 1.7165"></polygon>
                            <polygon id="Stroke-51" stroke="#21172E" stroke-width="3" stroke-linecap="round" stroke-linejoin="round" mask="url(#mask-2)" points="454.0158 262.5905 289.2538 295.5165 289.2538 34.6425 454.0158 1.7165"></polygon>
                            <g id="Group-54" mask="url(#mask-2)">
                                <g transform="translate(470.000000, 290.000000)">
                                    <path d="M0.4919,0.0241 L11.4759,11.0071" id="Fill-52" stroke="none" fill="#FFFFFF" fill-rule="evenodd"></path>
                                    <path d="M0.4919,0.0241 L11.4759,11.0071" id="Stroke-53" stroke="#21172E" stroke-width="3" fill="none" stroke-linecap="round" stroke-linejoin="round"></path>
                                </g>
                            </g>
                            <path d="M353.5211,129.5822 C354.9121,129.3102 356.1711,128.8282 357.3011,128.1362 C358.1071,126.3652 358.5101,124.5282 358.5101,122.6242 C358.5101,120.5862 358.0721,119.1932 357.1951,118.4462 C356.3181,117.7002 354.8611,117.5262 352.8251,117.9252 C351.7571,118.1342 350.5471,118.4722 349.1971,118.9382 L349.1971,129.9932 C350.7491,129.9802 352.1901,129.8432 353.5211,129.5822 M352.7651,131.7802 C351.6761,131.9942 350.4861,132.0922 349.1971,132.0762 L349.1971,139.6362 L347.0201,140.0622 L347.0201,117.6512 C349.4591,116.8152 351.4241,116.2502 352.9161,115.9582 C355.6381,115.4252 357.6441,115.6092 358.9341,116.5102 C360.2241,117.4112 360.8691,119.1382 360.8691,121.6912 C360.8691,123.4842 360.5261,125.2082 359.8411,126.8662 C357.6231,129.6522 355.2641,131.2902 352.7651,131.7802" id="Fill-55" fill="#FFFFFF" mask="url(#mask-2)"></path>
                            <path d="M353.5211,129.5822 C354.9121,129.3102 356.1711,128.8282 357.3011,128.1362 C358.1071,126.3652 358.5101,124.5282 358.5101,122.6242 C358.5101,120.5862 358.0721,119.1932 357.1951,118.4462 C356.3181,117.7002 354.8611,117.5262 352.8251,117.9252 C351.7571,118.1342 350.5471,118.4722 349.1971,118.9382 L349.1971,129.9932 C350.7491,129.9802 352.1901,129.8432 353.5211,129.5822 Z M352.7651,131.7802 C351.6761,131.9942 350.4861,132.0922 349.1971,132.0762 L349.1971,139.6362 L347.0201,140.0622 L347.0201,117.6512 C349.4591,116.8152 351.4241,116.2502 352.9161,115.9582 C355.6381,115.4252 357.6441,115.6092 358.9341,116.5102 C360.2241,117.4112 360.8691,119.1382 360.8691,121.6912 C360.8691,123.4842 360.5261,125.2082 359.8411,126.8662 C357.6231,129.6522 355.2641,131.2902 352.7651,131.7802 Z" id="Stroke-56" stroke="#FFFFFF" mask="url(#mask-2)"></path>
                            <path d="M370.9088,133.568 C373.1268,133.133 374.9308,132.377 376.3228,131.297 C377.4508,128.321 378.0158,125.411 378.0158,122.566 C378.0158,119.161 377.3958,116.869 376.1558,115.69 C374.9158,114.51 372.9658,114.181 370.3048,114.702 C369.3368,114.892 368.2278,115.176 366.9778,115.556 L366.9778,134.002 C368.2478,133.977 369.5578,133.833 370.9088,133.568 M370.7278,135.619 C368.6508,136.026 366.6758,136.346 364.8008,136.579 L364.8008,114.134 C366.8568,113.485 368.8428,112.973 370.7578,112.597 C377.1688,111.341 380.3738,114.231 380.3738,121.264 C380.3738,124.333 379.7688,127.374 378.5598,130.389 C376.1598,133.323 373.5498,135.067 370.7278,135.619" id="Fill-57" fill="#FFFFFF" mask="url(#mask-2)"></path>
                            <path d="M370.9088,133.568 C373.1268,133.133 374.9308,132.377 376.3228,131.297 C377.4508,128.321 378.0158,125.411 378.0158,122.566 C378.0158,119.161 377.3958,116.869 376.1558,115.69 C374.9158,114.51 372.9658,114.181 370.3048,114.702 C369.3368,114.892 368.2278,115.176 366.9778,115.556 L366.9778,134.002 C368.2478,133.977 369.5578,133.833 370.9088,133.568 Z M370.7278,135.619 C368.6508,136.026 366.6758,136.346 364.8008,136.579 L364.8008,114.134 C366.8568,113.485 368.8428,112.973 370.7578,112.597 C377.1688,111.341 380.3738,114.231 380.3738,121.264 C380.3738,124.333 379.7688,127.374 378.5598,130.389 C376.1598,133.323 373.5498,135.067 370.7278,135.619 Z" id="Stroke-58" stroke="#FFFFFF" mask="url(#mask-2)"></path>
                            <polygon id="Fill-59" fill="#FFFFFF" mask="url(#mask-2)" points="395.5846 121.0055 386.9356 122.3635 386.9356 132.2425 384.7586 132.6685 384.7586 110.2235 397.9126 107.3785 397.2776 109.8545 386.9356 111.5445 386.9356 120.4825 396.1886 118.6695"></polygon>
                            <polygon id="Stroke-60" stroke="#FFFFFF" mask="url(#mask-2)" points="395.5846 121.0055 386.9356 122.3635 386.9356 132.2425 384.7586 132.6685 384.7586 110.2235 397.9126 107.3785 397.2776 109.8545 386.9356 111.5445 386.9356 120.4825 396.1886 118.6695"></polygon>
                            <polygon id="Stroke-61" stroke="#FFFFFF" stroke-width="3" stroke-linecap="round" stroke-linejoin="round" mask="url(#mask-2)" points="314.5446 75.2721 314.5446 239.4531 428.7246 217.0831 428.7246 80.5691 403.8236 57.7801"></polygon>
                            <polygon id="Stroke-62" stroke="#FFFFFF" stroke-width="3" stroke-linecap="round" stroke-linejoin="round" mask="url(#mask-2)" points="403.8244 85.4479 428.7244 80.5699 428.7244 80.5689 403.8244 57.7809"></polygon>
                        </g>
                    </g>
                </g>
            </g>
        </g>
    </g>
</svg>